BioRhyme-Light Extended.ufo
<glyph name="parenright" format="1">
  <advance width="332"/>
  <unicode hex="0029"/>
  <outline>
    <contour>
      <point x="87" y="-44"/>
      <point x="237" y="69"/>
      <point x="237" y="265" type="curve"/>
      <point x="237" y="461"/>
      <point x="87" y="574"/>
      <point x="3" y="619" type="curve"/>
      <point x="-5" y="600" type="line"/>
      <point x="68" y="556"/>
      <point x="212" y="453"/>
      <point x="212" y="265" type="curve"/>
      <point x="212" y="77"/>
      <point x="68" y="-26"/>
      <point x="-5" y="-70" type="curve"/>
      <point x="3" y="-89" type="line"/>
    </contour>
  </outline>
</glyph>
<glyph name="asterisk" format="1">
  <advance width="442"/>
  <unicode hex="002A"/>
  <outline>
    <contour>
      <point x="193" y="583"/>
      <point x="209" y="545"/>
      <point x="212" y="515" type="curve" smooth="yes"/>
      <point x="214" y="491" type="line"/>
      <point x="228" y="491" type="line"/>
      <point x="230" y="515" type="line" smooth="yes"/>
      <point x="233" y="544"/>
      <point x="251" y="583"/>
      <point x="251" y="598" type="curve" smooth="yes"/>
      <point x="251" y="611"/>
      <point x="241" y="623"/>
      <point x="222" y="624" type="curve"/>
      <point x="201" y="623"/>
      <point x="193" y="611"/>
      <point x="193" y="598" type="curve" smooth="yes"/>
    </contour>
    <contour>
      <point x="262" y="455" type="line"/>
      <point x="289" y="461" type="line" smooth="yes"/>
      <point x="319" y="467"/>
      <point x="349" y="466"/>
      <point x="371" y="469" type="curve" smooth="yes"/>
      <point x="391" y="471"/>
      <point x="405" y="477"/>
      <point x="405" y="495" type="curve" smooth="yes"/>
      <point x="405" y="510"/>
      <point x="394" y="521"/>
      <point x="377" y="521" type="curve" smooth="yes"/>
      <point x="351" y="521"/>
      <point x="321" y="488"/>
      <point x="283" y="475" type="curve" smooth="yes"/>
      <point x="258" y="466" type="line"/>
    </contour>
    <contour>
      <point x="257" y="397" type="line" smooth="yes"/>
      <point x="289" y="355"/>
      <point x="287" y="311"/>
      <point x="322" y="311" type="curve" smooth="yes"/>
      <point x="331" y="311"/>
      <point x="339" y="314"/>
      <point x="344" y="319" type="curve" smooth="yes"/>
      <point x="349" y="323"/>
      <point x="351" y="329"/>
      <point x="351" y="335" type="curve" smooth="yes"/>
      <point x="351" y="362"/>
      <point x="302" y="377"/>
      <point x="270" y="407" type="curve" smooth="yes"/>
      <point x="251" y="425" type="line"/>
      <point x="241" y="418" type="line"/>
    </contour>
    <contour>
      <point x="171" y="407" type="line" smooth="yes"/>
      <point x="141" y="377"/>
      <point x="91" y="362"/>
      <point x="91" y="335" type="curve" smooth="yes"/>
      <point x="91" y="328"/>
      <point x="94" y="322"/>
      <point x="100" y="318" type="curve" smooth="yes"/>
      <point x="105" y="313"/>
      <point x="112" y="311"/>
      <point x="120" y="311" type="curve" smooth="yes"/>
      <point x="155" y="311"/>
      <point x="153" y="355"/>
      <point x="185" y="397" type="curve" smooth="yes"/>
      <point x="201" y="418" type="line"/>
      <point x="192" y="425" type="line"/>
    </contour>
    <contour>
      <point x="37" y="475"/>
      <point x="53" y="470"/>
      <point x="77" y="468" type="curve" smooth="yes"/>
      <point x="98" y="466"/>
      <point x="126" y="467"/>
      <point x="153" y="461" type="curve" smooth="yes"/>
      <point x="181" y="455" type="line"/>
      <point x="184" y="466" type="line"/>
      <point x="160" y="475" type="line" smooth="yes"/>
      <point x="122" y="488"/>
      <point x="91" y="521"/>
      <point x="65" y="521" type="curve" smooth="yes"/>
      <point x="48" y="521"/>
      <point x="37" y="510"/>
      <point x="37" y="495" type="curve" smooth="yes"/>
    </contour>
  </outline>
</glyph>
<glyph name="plus" format="1">
  <advance width="637"/>
  <unicode hex="002B"/>
  <outline>
    <contour>
      <point x="331" y="43" type="line"/>
      <point x="331" y="427" type="line"/>
      <point x="306" y="427" type="line"/>
      <point x="306" y="43" type="line"/>
    </contour>
    <contour>
      <point x="567" y="224" type="line"/>
      <point x="567" y="247" type="line"/>
      <point x="70" y="247" type="line"/>
      <point x="70" y="224" type="line"/>
    </contour>
  </outline>
</glyph>
<glyph name="period" format="1">
  <advance width="246"/>
  <unicode hex="002E"/>
  <outline>
    <contour>
      <point x="155" y="-10"/>
      <point x="172" y="4"/>
      <point x="172" y="22" type="curve"/>
      <point x="172" y="41"/>
      <point x="155" y="54"/>
      <point x="123" y="54" type="curve"/>
      <point x="92" y="54"/>
      <point x="74" y="41"/>
      <point x="74" y="22" type="curve"/>
      <point x="74" y="4"/>
      <point x="92" y="-10"/>
      <point x="123" y="-10" type="curve"/>
    </contour>
  </outline>
</glyph>
<glyph name="three" format="1">
  <advance width="702"/>
  <unicode hex="0033"/>
  <outline>
    <contour>
      <point x="527" y="-11"/>
      <point x="637" y="43"/>
      <point x="637" y="115" type="curve" smooth="yes"/>
      <point x="637" y="208"/>
      <point x="508" y="234"/>
      <point x="342" y="234" type="curve"/>
      <point x="342" y="223" type="line"/>
      <point x="509" y="223"/>
      <point x="609" y="279"/>
      <point x="609" y="352" type="curve" smooth="yes"/>
      <point x="609" y="437"/>
      <point x="504" y="481"/>
      <point x="367" y="481" type="curve" smooth="yes"/>
      <point x="246" y="481"/>
      <point x="138" y="452"/>
      <point x="56" y="410" type="curve"/>
      <point x="65" y="389" type="line"/>
      <point x="145" y="429"/>
      <point x="246" y="458"/>
      <point x="367" y="458" type="curve" smooth="yes"/>
      <point x="500" y="458"/>
      <point x="584" y="416"/>
      <point x="584" y="352" type="curve" smooth="yes"/>
      <point x="584" y="292"/>
      <point x="507" y="240"/>
      <point x="337" y="240" type="curve" smooth="yes"/>
      <point x="175" y="240" type="line"/>
      <point x="175" y="218" type="line"/>
      <point x="337" y="218" type="line" smooth="yes"/>
      <point x="532" y="218"/>
      <point x="612" y="184"/>
      <point x="612" y="115" type="curve" smooth="yes"/>
      <point x="612" y="54"/>
      <point x="506" y="12"/>
      <point x="357" y="12" type="curve" smooth="yes"/>
      <point x="200" y="12"/>
      <point x="99" y="62"/>
      <point x="54" y="95" type="curve"/>
      <point x="40" y="76" type="line"/>
      <point x="87" y="43"/>
      <point x="191" y="-11"/>
      <point x="355" y="-11" type="curve" smooth="yes"/>
    </contour>
  </outline>
</glyph>
<glyph name="four" format="1">
  <advance width="685"/>
  <unicode hex="0034"/>
  <outline>
    <contour>
      <point x="510" y="480" type="line"/>
      <point x="472" y="480" type="line"/>
      <point x="25" y="148" type="line"/>
      <point x="55" y="140" type="line"/>
    </contour>
    <contour>
      <point x="670" y="125" type="line"/>
      <point x="670" y="148" type="line"/>
      <point x="25" y="148" type="line"/>
      <point x="25" y="125" type="line"/>
    </contour>
    <contour>
      <point x="485" y="-10" type="line"/>
      <point x="510" y="-10" type="line"/>
      <point x="510" y="480" type="line"/>
      <point x="485" y="480" type="line"/>
    </contour>
  </outline>
</glyph>
<glyph name="colon" format="1">
  <advance width="274"/>
  <unicode hex="003A"/>
  <outline>
    <contour>
      <point x="169" y="302"/>
      <point x="186" y="316"/>
      <point x="186" y="334" type="curve"/>
      <point x="186" y="353"/>
      <point x="169" y="366"/>
      <point x="137" y="366" type="curve"/>
      <point x="106" y="366"/>
      <point x="88" y="353"/>
      <point x="88" y="334" type="curve"/>
      <point x="88" y="316"/>
      <point x="106" y="302"/>
      <point x="137" y="302" type="curve"/>
    </contour>
    <contour>
      <point x="169" y="-10"/>
      <point x="186" y="4"/>
      <point x="186" y="22" type="curve"/>
      <point x="186" y="41"/>
      <point x="169" y="54"/>
      <point x="137" y="54" type="curve"/>
      <point x="106" y="54"/>
      <point x="88" y="41"/>
      <point x="88" y="22" type="curve"/>
      <point x="88" y="4"/>
      <point x="106" y="-10"/>
      <point x="137" y="-10" type="curve"/>
    </contour>
  </outline>
</glyph>
<glyph name="semicolon" format="1">
  <advance width="295"/>
  <unicode hex="003B"/>
  <outline>
    <contour>
      <point x="160" y="-112"/>
      <point x="207" y="-50"/>
      <point x="207" y="-7" type="curve" smooth="yes"/>
      <point x="207" y="25"/>
      <point x="188" y="45"/>
      <point x="153" y="45" type="curve" smooth="yes"/>
      <point x="122" y="45"/>
      <point x="103" y="30"/>
      <point x="103" y="11" type="curve" smooth="yes"/>
      <point x="103" y="-8"/>
      <point x="121" y="-20"/>
      <point x="146" y="-20" type="curve" smooth="yes"/>
      <point x="161" y="-20"/>
      <point x="174" y="-18"/>
      <point x="186" y="-15" type="curve"/>
      <point x="179" y="-59"/>
      <point x="138" y="-103"/>
      <point x="88" y="-148" type="curve"/>
      <point x="99" y="-160" type="line"/>
    </contour>
    <contour>
      <point x="184" y="301"/>
      <point x="201" y="315"/>
      <point x="201" y="333" type="curve"/>
      <point x="201" y="352"/>
      <point x="184" y="365"/>
      <point x="152" y="365" type="curve"/>
      <point x="121" y="365"/>
      <point x="103" y="352"/>
      <point x="103" y="333" type="curve"/>
      <point x="103" y="315"/>
      <point x="121" y="301"/>
      <point x="152" y="301" type="curve"/>
    </contour>
  </outline>
</glyph>
<glyph name="question" format="1">
  <advance width="473"/>
  <unicode hex="003F"/>
  <outline>
    <contour>
      <point x="217" y="-10"/>
      <point x="233" y="4"/>
      <point x="233" y="22" type="curve"/>
      <point x="233" y="41"/>
      <point x="217" y="54"/>
      <point x="184" y="54" type="curve"/>
      <point x="153" y="54"/>
      <point x="135" y="41"/>
      <point x="135" y="22" type="curve"/>
      <point x="135" y="4"/>
      <point x="153" y="-10"/>
      <point x="184" y="-10" type="curve"/>
    </contour>
    <contour>
      <point x="57" y="471" type="line"/>
      <point x="107" y="492"/>
      <point x="157" y="506"/>
      <point x="226" y="506" type="curve" smooth="yes"/>
      <point x="314" y="506"/>
      <point x="384" y="468"/>
      <point x="384" y="409" type="curve" smooth="yes"/>
      <point x="384" y="357"/>
      <point x="332" y="330"/>
      <point x="273" y="309" type="curve" smooth="yes"/>
      <point x="201" y="282"/>
      <point x="124" y="264"/>
      <point x="124" y="216" type="curve" smooth="yes"/>
      <point x="124" y="188"/>
      <point x="139" y="162"/>
      <point x="162" y="129" type="curve"/>
      <point x="174" y="134" type="line"/>
      <point x="160" y="162"/>
      <point x="147" y="182"/>
      <point x="147" y="210" type="curve" smooth="yes"/>
      <point x="147" y="248"/>
      <point x="212" y="264"/>
      <point x="280" y="288" type="curve" smooth="yes"/>
      <point x="345" y="311"/>
      <point x="409" y="342"/>
      <point x="409" y="408" type="curve" smooth="yes"/>
      <point x="409" y="488"/>
      <point x="321" y="529"/>
      <point x="226" y="529" type="curve" smooth="yes"/>
      <point x="156" y="529"/>
      <point x="104" y="515"/>
      <point x="50" y="494" type="curve"/>
    </contour>
  </outline>
</glyph>
<glyph name="A" format="1">
  <advance width="1024"/>
  <unicode hex="0041"/>
  <outline>
    <contour>
      <point x="179" y="13" type="line"/>
      <point x="514" y="502" type="line"/>
      <point x="511" y="502" type="line"/>
      <point x="846" y="13" type="line"/>
      <point x="875" y="13" type="line"/>
      <point x="531" y="510" type="line" smooth="yes"/>
      <point x="493" y="510" type="line"/>
      <point x="150" y="13" type="line"/>
    </contour>
    <contour>
      <point x="334" y="0" type="line"/>
      <point x="334" y="23" type="line"/>
      <point x="-5" y="23" type="line"/>
      <point x="-5" y="0" type="line"/>
    </contour>
    <contour>
      <point x="731" y="199" type="line"/>
      <point x="714" y="222" type="line"/>
      <point x="308" y="222" type="line"/>
      <point x="290" y="199" type="line"/>
    </contour>
    <contour>
      <point x="1029" y="0" type="line"/>
      <point x="1029" y="23" type="line"/>
      <point x="691" y="23" type="line"/>
      <point x="691" y="0" type="line"/>
    </contour>
    <contour>
      <point x="700" y="497" type="line"/>
      <point x="700" y="520" type="line"/>
      <point x="324" y="520" type="line"/>
      <point x="324" y="497" type="line"/>
    </contour>
    <contour>
      <point x="603" y="585" type="move" name="hook"/>
    </contour>
    <contour>
      <point x="1029" y="0" type="move" name="ogonek"/>
    </contour>
    <contour>
      <point x="512" y="520" type="move" name="top"/>
    </contour>
    <contour>
      <point x="513" y="0" type="move" name="bottom"/>
    </contour>
  </outline>
</glyph>
<glyph name="B" format="1">
  <advance width="962"/>
  <unicode hex="0042"/>
  <outline>
    <contour>
      <point x="673" y="0" type="line" smooth="yes"/>
      <point x="790" y="0"/>
      <point x="862" y="45"/>
      <point x="862" y="136" type="curve" smooth="yes"/>
      <point x="862" y="231"/>
      <point x="781" y="270"/>
      <point x="664" y="270" type="curve"/>
      <point x="664" y="262" type="line"/>
      <point x="775" y="262"/>
      <point x="828" y="315"/>
      <point x="828" y="391" type="curve" smooth="yes"/>
      <point x="828" y="469"/>
      <point x="768" y="520"/>
      <point x="667" y="520" type="curve" smooth="yes"/>
      <point x="56" y="520" type="line"/>
      <point x="56" y="497" type="line"/>
      <point x="664" y="497" type="line" smooth="yes"/>
      <point x="743" y="497"/>
      <point x="803" y="465"/>
      <point x="803" y="391" type="curve" smooth="yes"/>
      <point x="803" y="316"/>
      <point x="745" y="278"/>
      <point x="661" y="278" type="curve" smooth="yes"/>
      <point x="254" y="278" type="line"/>
      <point x="254" y="255" type="line"/>
      <point x="656" y="254" type="line" smooth="yes"/>
      <point x="755" y="254"/>
      <point x="837" y="222"/>
      <point x="837" y="137" type="curve" smooth="yes"/>
      <point x="837" y="55"/>
      <point x="769" y="23"/>
      <point x="667" y="23" type="curve" smooth="yes"/>
      <point x="56" y="23" type="line"/>
      <point x="56" y="0" type="line"/>
    </contour>
    <contour>
      <point x="263" y="14" type="line"/>
      <point x="263" y="508" type="line"/>
      <point x="238" y="508" type="line"/>
      <point x="238" y="14" type="line"/>
    </contour>
    <contour>
      <point x="462" y="520" type="move" name="top"/>
    </contour>
    <contour>
      <point x="462" y="0" type="move" name="bottom"/>
    </contour>
  </outline>
</glyph>
<glyph name="C" format="1">
  <advance width="889"/>
  <unicode hex="0043"/>
  <outline>
    <contour>
      <point x="645" y="-11"/>
      <point x="752" y="85"/>
      <point x="799" y="168" type="curve"/>
      <point x="779" y="181" type="line"/>
      <point x="739" y="107"/>
      <point x="629" y="12"/>
      <point x="431" y="12" type="curve"/>
      <point x="249" y="12"/>
      <point x="100" y="106"/>
      <point x="100" y="260" type="curve"/>
      <point x="100" y="414"/>
      <point x="254" y="507"/>
      <point x="439" y="507" type="curve" smooth="yes"/>
      <point x="577" y="507"/>
      <point x="694" y="461"/>
      <point x="784" y="330" type="curve"/>
      <point x="796" y="332" type="line"/>
      <point x="796" y="520" type="line"/>
      <point x="773" y="520" type="line"/>
      <point x="773" y="361" type="line"/>
      <point x="784" y="361" type="line"/>
      <point x="715" y="461"/>
      <point x="600" y="530"/>
      <point x="439" y="530" type="curve" smooth="yes"/>
      <point x="246" y="530"/>
      <point x="75" y="432"/>
      <point x="75" y="260" type="curve"/>
      <point x="75" y="88"/>
      <point x="239" y="-11"/>
      <point x="431" y="-11" type="curve"/>
    </contour>
    <contour>
      <point x="438" y="530" type="move" name="top"/>
    </contour>
    <contour>
      <point x="431" y="-10" type="move" name="bottom"/>
    </contour>
  </outline>
</glyph>
<glyph name="D" format="1">
  <advance width="964"/>
  <unicode hex="0044"/>
  <outline>
    <contour>
      <point x="545" y="0" type="line"/>
      <point x="750" y="0"/>
      <point x="889" y="85"/>
      <point x="889" y="260" type="curve"/>
      <point x="889" y="435"/>
      <point x="750" y="520"/>
      <point x="545" y="520" type="curve"/>
      <point x="56" y="520" type="line"/>
      <point x="56" y="497" type="line"/>
      <point x="545" y="497" type="line"/>
      <point x="739" y="497"/>
      <point x="864" y="418"/>
      <point x="864" y="260" type="curve"/>
      <point x="864" y="102"/>
      <point x="739" y="23"/>
      <point x="545" y="23" type="curve"/>
      <point x="56" y="23" type="line"/>
      <point x="56" y="0" type="line"/>
    </contour>
    <contour>
      <point x="263" y="13" type="line"/>
      <point x="263" y="507" type="line"/>
      <point x="238" y="507" type="line"/>
      <point x="238" y="13" type="line"/>
    </contour>
    <contour>
      <point x="480" y="245" type="move" name="center"/>
    </contour>
    <contour>
      <point x="480" y="0" type="move" name="bottom"/>
    </contour>
    <contour>
      <point x="480" y="520" type="move" name="top"/>
    </contour>
  </outline>
</glyph>
<glyph name="G" format="1">
  <advance width="899"/>
  <unicode hex="0047"/>
  <outline>
    <contour>
      <point x="663" y="-10"/>
      <point x="809" y="106"/>
      <point x="809" y="252" type="curve" smooth="yes"/>
      <point x="809" y="254" type="line"/>
      <point x="432" y="254" type="line"/>
      <point x="432" y="231" type="line"/>
      <point x="784" y="231" type="line"/>
      <point x="771" y="118"/>
      <point x="657" y="13"/>
      <point x="436" y="13" type="curve" smooth="yes"/>
      <point x="254" y="13"/>
      <point x="105" y="107"/>
      <point x="105" y="259" type="curve" smooth="yes"/>
      <point x="105" y="413"/>
      <point x="259" y="507"/>
      <point x="444" y="507" type="curve" smooth="yes"/>
      <point x="582" y="507"/>
      <point x="699" y="461"/>
      <point x="789" y="330" type="curve"/>
      <point x="801" y="331" type="line"/>
      <point x="801" y="520" type="line"/>
      <point x="778" y="520" type="line"/>
      <point x="778" y="361" type="line"/>
      <point x="789" y="361" type="line"/>
      <point x="720" y="461"/>
      <point x="605" y="530"/>
      <point x="444" y="530" type="curve" smooth="yes"/>
      <point x="251" y="530"/>
      <point x="80" y="431"/>
      <point x="80" y="259" type="curve" smooth="yes"/>
      <point x="80" y="89"/>
      <point x="244" y="-10"/>
      <point x="436" y="-10" type="curve" smooth="yes"/>
    </contour>
    <contour>
      <point x="439" y="530" type="move" name="top"/>
    </contour>
    <contour>
      <point x="439" y="-10" type="move" name="bottom"/>
    </contour>
  </outline>
</glyph>
<glyph name="K" format="1">
  <advance width="997"/>
  <unicode hex="004B"/>
  <outline>
    <contour>
      <point x="824" y="507" type="line"/>
      <point x="784" y="507" type="line"/>
      <point x="250" y="156" type="line"/>
      <point x="250" y="129" type="line"/>
    </contour>
    <contour>
      <point x="445" y="0" type="line" smooth="yes"/>
      <point x="445" y="23" type="line" smooth="yes"/>
      <point x="56" y="23" type="line" smooth="yes"/>
      <point x="56" y="0" type="line" smooth="yes"/>
    </contour>
    <contour>
      <point x="263" y="13" type="line" smooth="yes"/>
      <point x="263" y="507" type="line" smooth="yes"/>
      <point x="238" y="507" type="line" smooth="yes"/>
      <point x="238" y="13" type="line" smooth="yes"/>
    </contour>
    <contour>
      <point x="962" y="0" type="line" smooth="yes"/>
      <point x="962" y="23" type="line" smooth="yes"/>
      <point x="610" y="23" type="line" smooth="yes"/>
      <point x="610" y="0" type="line" smooth="yes"/>
    </contour>
    <contour>
      <point x="830" y="10" type="line"/>
      <point x="481" y="294" type="line"/>
      <point x="465" y="278" type="line"/>
      <point x="795" y="10" type="line"/>
    </contour>
    <contour>
      <point x="445" y="497" type="line" smooth="yes"/>
      <point x="445" y="520" type="line" smooth="yes"/>
      <point x="56" y="520" type="line" smooth="yes"/>
      <point x="56" y="497" type="line" smooth="yes"/>
    </contour>
    <contour>
      <point x="952" y="497" type="line" smooth="yes"/>
      <point x="952" y="520" type="line" smooth="yes"/>
      <point x="600" y="520" type="line" smooth="yes"/>
      <point x="600" y="497" type="line" smooth="yes"/>
    </contour>
    <contour>
      <point x="525" y="520" type="move" name="top"/>
    </contour>
    <contour>
      <point x="525" y="0" type="move" name="bottom"/>
    </contour>
  </outline>
</glyph>
<glyph name="M" format="1">
  <advance width="1237"/>
  <unicode hex="004D"/>
  <outline>
    <contour>
      <point x="621" y="-11" type="line"/>
      <point x="629" y="14" type="line"/>
      <point x="263" y="520" type="line"/>
      <point x="232" y="520" type="line"/>
      <point x="616" y="-11" type="line"/>
    </contour>
    <contour>
      <point x="413" y="0" type="line"/>
      <point x="413" y="23" type="line"/>
      <point x="56" y="23" type="line"/>
      <point x="56" y="0" type="line"/>
    </contour>
    <contour>
      <point x="263" y="12" type="line"/>
      <point x="263" y="453" type="line"/>
      <point x="263" y="475"/>
      <point x="263" y="498"/>
      <point x="263" y="520" type="curve"/>
      <point x="238" y="520" type="line"/>
      <point x="238" y="12" type="line"/>
    </contour>
    <contour>
      <point x="263" y="497" type="line"/>
      <point x="263" y="520" type="line"/>
      <point x="56" y="520" type="line"/>
      <point x="56" y="497" type="line"/>
    </contour>
    <contour>
      <point x="1181" y="0" type="line"/>
      <point x="1181" y="23" type="line"/>
      <point x="824" y="23" type="line"/>
      <point x="824" y="0" type="line"/>
    </contour>
    <contour>
      <point x="622" y="-11" type="line"/>
      <point x="1006" y="520" type="line"/>
      <point x="974" y="520" type="line"/>
      <point x="611" y="14" type="line"/>
      <point x="617" y="-11" type="line"/>
    </contour>
    <contour>
      <point x="999" y="12" type="line"/>
      <point x="999" y="520" type="line"/>
      <point x="974" y="520" type="line"/>
      <point x="974" y="498"/>
      <point x="974" y="475"/>
      <point x="974" y="453" type="curve"/>
      <point x="974" y="12" type="line"/>
    </contour>
    <contour>
      <point x="1181" y="497" type="line"/>
      <point x="1181" y="520" type="line"/>
      <point x="974" y="520" type="line"/>
      <point x="974" y="497" type="line"/>
    </contour>
    <contour>
      <point x="619" y="490" type="move" name="top"/>
    </contour>
    <contour>
      <point x="619" y="-20" type="move" name="bottom"/>
    </contour>
  </outline>
</glyph>
<glyph name="N" format="1">
  <advance width="1107"/>
  <unicode hex="004E"/>
  <outline>
    <contour>
      <point x="910" y="-5" type="line"/>
      <point x="910" y="507" type="line"/>
      <point x="885" y="507" type="line"/>
      <point x="885" y="43" type="line"/>
      <point x="263" y="520" type="line"/>
      <point x="219" y="520" type="line"/>
      <point x="905" y="-5" type="line"/>
    </contour>
    <contour>
      <point x="445" y="0" type="line"/>
      <point x="445" y="23" type="line"/>
      <point x="56" y="23" type="line"/>
      <point x="56" y="0" type="line"/>
    </contour>
    <contour>
      <point x="263" y="12" type="line"/>
      <point x="263" y="520" type="line"/>
      <point x="238" y="520" type="line"/>
      <point x="238" y="12" type="line"/>
    </contour>
    <contour>
      <point x="263" y="497" type="line"/>
      <point x="263" y="520" type="line"/>
      <point x="56" y="520" type="line"/>
      <point x="56" y="497" type="line"/>
    </contour>
    <contour>
      <point x="1092" y="497" type="line"/>
      <point x="1092" y="520" type="line"/>
      <point x="703" y="520" type="line"/>
      <point x="703" y="497" type="line"/>
    </contour>
    <contour>
      <point x="551" y="510" type="move" name="top"/>
    </contour>
    <contour>
      <point x="611" y="10" type="move" name="bottom"/>
    </contour>
  </outline>
</glyph>
<glyph name="O" format="1">
  <advance width="916"/>
  <unicode hex="004F"/>
  <outline>
    <contour>
      <point x="674" y="-10"/>
      <point x="841" y="88"/>
      <point x="841" y="260" type="curve"/>
      <point x="841" y="431"/>
      <point x="674" y="530"/>
      <point x="458" y="530" type="curve"/>
      <point x="242" y="530"/>
      <point x="75" y="431"/>
      <point x="75" y="260" type="curve"/>
      <point x="75" y="88"/>
      <point x="242" y="-10"/>
      <point x="458" y="-10" type="curve"/>
    </contour>
    <contour>
      <point x="252" y="13"/>
      <point x="100" y="106"/>
      <point x="100" y="260" type="curve"/>
      <point x="100" y="414"/>
      <point x="252" y="507"/>
      <point x="458" y="507" type="curve"/>
      <point x="663" y="507"/>
      <point x="816" y="414"/>
      <point x="816" y="260" type="curve"/>
      <point x="816" y="106"/>
      <point x="663" y="13"/>
      <point x="458" y="13" type="curve"/>
    </contour>
    <contour>
      <point x="458" y="-10" type="move" name="bottom"/>
    </contour>
    <contour>
      <point x="460" y="-8" type="move" name="ogonek"/>
    </contour>
    <contour>
      <point x="458" y="530" type="move" name="top"/>
    </contour>
    <contour>
      <point x="891" y="490" type="move" name="topright"/>
    </contour>
    <contour>
      <point x="458" y="245" type="move" name="center"/>
    </contour>
  </outline>
</glyph>
<glyph name="Q" format="1">
  <advance width="917"/>
  <unicode hex="0051"/>
  <outline>
    <contour>
      <point x="674" y="-10"/>
      <point x="841" y="88"/>
      <point x="841" y="260" type="curve"/>
      <point x="841" y="431"/>
      <point x="674" y="530"/>
      <point x="458" y="530" type="curve"/>
      <point x="242" y="530"/>
      <point x="75" y="431"/>
      <point x="75" y="260" type="curve"/>
      <point x="75" y="88"/>
      <point x="242" y="-10"/>
      <point x="458" y="-10" type="curve"/>
    </contour>
    <contour>
      <point x="828" y="-158"/>
      <point x="891" y="-99"/>
      <point x="902" y="-13" type="curve"/>
      <point x="879" y="-9" type="line"/>
      <point x="869" y="-87"/>
      <point x="813" y="-135"/>
      <point x="736" y="-135" type="curve" smooth="yes"/>
      <point x="658" y="-135"/>
      <point x="602" y="-80"/>
      <point x="533" y="2" type="curve" smooth="yes"/>
      <point x="515" y="23" type="line" smooth="yes"/>
      <point x="422" y="134"/>
      <point x="355" y="223"/>
      <point x="179" y="223" type="curve" smooth="yes"/>
      <point x="98" y="223" type="line"/>
      <point x="98" y="200" type="line"/>
      <point x="179" y="200" type="line" smooth="yes"/>
      <point x="341" y="200"/>
      <point x="409" y="113"/>
      <point x="490" y="17" type="curve" smooth="yes"/>
      <point x="503" y="1" type="line" smooth="yes"/>
      <point x="586" y="-99"/>
      <point x="644" y="-158"/>
      <point x="736" y="-158" type="curve" smooth="yes"/>
    </contour>
    <contour>
      <point x="252" y="13"/>
      <point x="100" y="106"/>
      <point x="100" y="260" type="curve"/>
      <point x="100" y="414"/>
      <point x="252" y="507"/>
      <point x="458" y="507" type="curve"/>
      <point x="663" y="507"/>
      <point x="816" y="414"/>
      <point x="816" y="260" type="curve"/>
      <point x="816" y="106"/>
      <point x="663" y="13"/>
      <point x="458" y="13" type="curve"/>
    </contour>
    <contour>
      <point x="456" y="530" type="move" name="top"/>
    </contour>
    <contour>
      <point x="456" y="-10" type="move" name="bottom"/>
    </contour>
  </outline>
</glyph>
<glyph name="T" format="1">
  <advance width="921"/>
  <unicode hex="0054"/>
  <outline>
    <contour>
      <point x="115" y="337" type="line"/>
      <point x="115" y="497" type="line"/>
      <point x="806" y="497" type="line"/>
      <point x="806" y="337" type="line"/>
      <point x="831" y="337" type="line"/>
      <point x="831" y="520" type="line"/>
      <point x="90" y="520" type="line"/>
      <point x="90" y="337" type="line"/>
    </contour>
    <contour>
      <point x="665" y="0" type="line"/>
      <point x="665" y="23" type="line"/>
      <point x="256" y="23" type="line"/>
      <point x="256" y="0" type="line"/>
    </contour>
    <contour>
      <point x="473" y="13" type="line"/>
      <point x="473" y="507" type="line"/>
      <point x="448" y="507" type="line"/>
      <point x="448" y="13" type="line"/>
    </contour>
    <contour>
      <point x="461" y="245" type="move" name="center"/>
    </contour>
    <contour>
      <point x="461" y="0" type="move" name="bottom"/>
    </contour>
    <contour>
      <point x="461" y="520" type="move" name="top"/>
    </contour>
  </outline>
</glyph>
<glyph name="U" format="1">
  <advance width="1001"/>
  <unicode hex="0055"/>
  <outline>
    <contour>
      <point x="694" y="-10"/>
      <point x="819" y="79"/>
      <point x="819" y="254" type="curve" smooth="yes"/>
      <point x="819" y="507" type="line"/>
      <point x="797" y="507" type="line"/>
      <point x="794" y="242" type="line" smooth="yes"/>
      <point x="792" y="89"/>
      <point x="675" y="13"/>
      <point x="501" y="13" type="curve"/>
      <point x="326" y="13"/>
      <point x="209" y="89"/>
      <point x="207" y="243" type="curve" smooth="yes"/>
      <point x="204" y="507" type="line"/>
      <point x="182" y="507" type="line"/>
      <point x="182" y="254" type="line" smooth="yes"/>
      <point x="182" y="79"/>
      <point x="308" y="-10"/>
      <point x="501" y="-10" type="curve"/>
    </contour>
    <contour>
      <point x="386" y="497" type="line"/>
      <point x="386" y="520" type="line"/>
      <point x="0" y="520" type="line"/>
      <point x="0" y="497" type="line"/>
    </contour>
    <contour>
      <point x="1001" y="497" type="line"/>
      <point x="1001" y="520" type="line"/>
      <point x="615" y="520" type="line"/>
      <point x="615" y="497" type="line"/>
    </contour>
    <contour>
      <point x="501" y="-10" type="move" name="ogonek"/>
    </contour>
    <contour>
      <point x="501" y="510" type="move" name="top"/>
    </contour>
    <contour>
      <point x="992" y="490" type="move" name="topright"/>
    </contour>
    <contour>
      <point x="501" y="-10" type="move" name="bottom"/>
    </contour>
  </outline>
</glyph>
<glyph name="Z" format="1">
  <advance width="863"/>
  <unicode hex="005A"/>
  <outline>
    <contour>
      <point x="763" y="0" type="line"/>
      <point x="763" y="183" type="line"/>
      <point x="738" y="183" type="line"/>
      <point x="738" y="23" type="line"/>
      <point x="150" y="23" type="line"/>
      <point x="143" y="18" type="line"/>
      <point x="144" y="14" type="line"/>
      <point x="152" y="16" type="line"/>
      <point x="759" y="507" type="line"/>
      <point x="759" y="520" type="line"/>
      <point x="105" y="520" type="line"/>
      <point x="105" y="337" type="line"/>
      <point x="130" y="337" type="line"/>
      <point x="130" y="497" type="line"/>
      <point x="717" y="497" type="line"/>
      <point x="722" y="502" type="line"/>
      <point x="721" y="504" type="line"/>
      <point x="715" y="502" type="line"/>
      <point x="108" y="13" type="line"/>
      <point x="108" y="0" type="line"/>
    </contour>
    <contour>
      <point x="434" y="520" type="move" name="top"/>
    </contour>
    <contour>
      <point x="434" y="0" type="move" name="bottom"/>
    </contour>
  </outline>
</glyph>
<glyph name="underscore" format="1">
  <advance width="400"/>
  <unicode hex="005F"/>
  <outline>
    <contour>
      <point x="-10" y="-67" type="line"/>
      <point x="-10" y="-91" type="line"/>
      <point x="410" y="-91" type="line"/>
      <point x="410" y="-67" type="line"/>
    </contour>
  </outline>
</glyph>
<glyph name="c" format="1">
  <advance width="773"/>
  <unicode hex="0063"/>
  <outline>
    <contour>
      <point x="500" y="-9"/>
      <point x="599" y="33"/>
      <point x="678" y="96" type="curve"/>
      <point x="663" y="114" type="line"/>
      <point x="589" y="56"/>
      <point x="489" y="13"/>
      <point x="365" y="14" type="curve" smooth="yes"/>
      <point x="218" y="15"/>
      <point x="105" y="78"/>
      <point x="105" y="172" type="curve" smooth="yes"/>
      <point x="105" y="286"/>
      <point x="242" y="345"/>
      <point x="375" y="344" type="curve" smooth="yes"/>
      <point x="484" y="344"/>
      <point x="599" y="306"/>
      <point x="666" y="220" type="curve"/>
      <point x="672" y="221" type="line"/>
      <point x="672" y="357" type="line"/>
      <point x="649" y="357" type="line"/>
      <point x="649" y="257" type="line"/>
      <point x="661" y="252" type="line"/>
      <point x="610" y="315"/>
      <point x="501" y="367"/>
      <point x="377" y="367" type="curve" smooth="yes"/>
      <point x="232" y="368"/>
      <point x="80" y="303"/>
      <point x="80" y="172" type="curve" smooth="yes"/>
      <point x="80" y="58"/>
      <point x="208" y="-9"/>
      <point x="365" y="-9" type="curve" smooth="yes"/>
    </contour>
    <contour>
      <point x="377" y="367" type="move" name="top"/>
    </contour>
    <contour>
      <point x="366" y="-10" type="move" name="bottom"/>
    </contour>
  </outline>
</glyph>
<glyph name="d" format="1">
  <advance width="903"/>
  <unicode hex="0064"/>
  <outline>
    <contour>
      <point x="448" y="-11"/>
      <point x="570" y="53"/>
      <point x="686" y="137" type="curve"/>
      <point x="686" y="160" type="line"/>
      <point x="561" y="72"/>
      <point x="432" y="12"/>
      <point x="318" y="12" type="curve"/>
      <point x="185" y="12"/>
      <point x="105" y="73"/>
      <point x="105" y="161" type="curve"/>
      <point x="105" y="271"/>
      <point x="231" y="344"/>
      <point x="383" y="343" type="curve"/>
      <point x="502" y="344"/>
      <point x="615" y="301"/>
      <point x="689" y="261" type="curve"/>
      <point x="689" y="283" type="line"/>
      <point x="617" y="324"/>
      <point x="512" y="366"/>
      <point x="383" y="366" type="curve"/>
      <point x="220" y="366"/>
      <point x="80" y="289"/>
      <point x="80" y="161" type="curve"/>
      <point x="80" y="53"/>
      <point x="175" y="-11"/>
      <point x="318" y="-11" type="curve"/>
    </contour>
    <contour>
      <point x="792" y="-10"/>
      <point x="819" y="2"/>
      <point x="843" y="19" type="curve"/>
      <point x="833" y="39" type="line"/>
      <point x="810" y="22"/>
      <point x="789" y="13"/>
      <point x="762" y="13" type="curve" smooth="yes"/>
      <point x="729" y="13"/>
      <point x="698" y="38"/>
      <point x="698" y="94" type="curve" smooth="yes"/>
      <point x="698" y="520" type="line"/>
      <point x="673" y="520" type="line"/>
      <point x="673" y="94" type="line" smooth="yes"/>
      <point x="673" y="28"/>
      <point x="710" y="-10"/>
      <point x="761" y="-10" type="curve" smooth="yes"/>
    </contour>
    <contour>
      <point x="689" y="497" type="line"/>
      <point x="689" y="520" type="line"/>
      <point x="491" y="520" type="line"/>
      <point x="491" y="497" type="line"/>
    </contour>
    <contour>
      <point x="425" y="-10" type="move" name="bottom"/>
    </contour>
    <contour>
      <point x="425" y="367" type="move" name="top"/>
    </contour>
    <contour>
      <point x="818" y="357" type="move" name="topright"/>
    </contour>
    <contour>
      <point x="425" y="179" type="move" name="center"/>
    </contour>
  </outline>
</glyph>
<glyph name="e" format="1">
  <advance width="751"/>
  <unicode hex="0065"/>
  <outline>
    <contour>
      <point x="505" y="-10"/>
      <point x="590" y="22"/>
      <point x="666" y="69" type="curve"/>
      <point x="654" y="89" type="line"/>
      <point x="581" y="43"/>
      <point x="494" y="12"/>
      <point x="370" y="13" type="curve" smooth="yes"/>
      <point x="218" y="14"/>
      <point x="105" y="77"/>
      <point x="105" y="171" type="curve" smooth="yes"/>
      <point x="105" y="280"/>
      <point x="252" y="344"/>
      <point x="400" y="344" type="curve" smooth="yes"/>
      <point x="540" y="344"/>
      <point x="627" y="309"/>
      <point x="627" y="250" type="curve" smooth="yes"/>
      <point x="627" y="187"/>
      <point x="533" y="163"/>
      <point x="413" y="163" type="curve" smooth="yes"/>
      <point x="305" y="163"/>
      <point x="205" y="181"/>
      <point x="99" y="217" type="curve"/>
      <point x="100" y="196" type="line"/>
      <point x="205" y="160"/>
      <point x="305" y="140"/>
      <point x="413" y="140" type="curve" smooth="yes"/>
      <point x="548" y="140"/>
      <point x="652" y="172"/>
      <point x="652" y="250" type="curve" smooth="yes"/>
      <point x="652" y="323"/>
      <point x="551" y="367"/>
      <point x="400" y="367" type="curve" smooth="yes"/>
      <point x="240" y="367"/>
      <point x="80" y="297"/>
      <point x="80" y="171" type="curve" smooth="yes"/>
      <point x="80" y="57"/>
      <point x="208" y="-10"/>
      <point x="370" y="-10" type="curve" smooth="yes"/>
    </contour>
    <contour>
      <point x="666" y="69" type="move" name="ogonek"/>
    </contour>
    <contour>
      <point x="370" y="-10" type="move" name="bottom"/>
    </contour>
    <contour>
      <point x="376" y="367" type="move" name="top"/>
    </contour>
  </outline>
</glyph>
<glyph name="f" format="1">
  <advance width="554"/>
  <unicode hex="0066"/>
  <outline>
    <contour>
      <point x="235" y="0" type="line"/>
      <point x="235" y="388" type="line"/>
      <point x="235" y="485"/>
      <point x="277" y="532"/>
      <point x="373" y="532" type="curve" smooth="yes"/>
      <point x="430" y="532"/>
      <point x="496" y="517"/>
      <point x="546" y="497" type="curve"/>
      <point x="554" y="520" type="line"/>
      <point x="504" y="536"/>
      <point x="439" y="555"/>
      <point x="375" y="555" type="curve" smooth="yes"/>
      <point x="260" y="555"/>
      <point x="210" y="494"/>
      <point x="210" y="386" type="curve"/>
      <point x="210" y="0" type="line"/>
    </contour>
    <contour>
      <point x="427" y="0" type="line"/>
      <point x="427" y="23" type="line"/>
      <point x="50" y="23" type="line"/>
      <point x="50" y="0" type="line"/>
    </contour>
    <contour>
      <point x="459" y="334" type="line"/>
      <point x="459" y="357" type="line"/>
      <point x="50" y="357" type="line"/>
      <point x="50" y="334" type="line"/>
    </contour>
  </outline>
</glyph>
<glyph name="h" format="1">
  <advance width="937"/>
  <unicode hex="0068"/>
  <outline>
    <contour>
      <point x="752" y="0" type="line"/>
      <point x="752" y="135" type="line"/>
      <point x="752" y="257"/>
      <point x="703" y="367"/>
      <point x="547" y="367" type="curve" smooth="yes"/>
      <point x="411" y="367"/>
      <point x="288" y="263"/>
      <point x="224" y="211" type="curve"/>
      <point x="224" y="188" type="line"/>
      <point x="288" y="239"/>
      <point x="411" y="344"/>
      <point x="547" y="344" type="curve" smooth="yes"/>
      <point x="693" y="344"/>
      <point x="727" y="237"/>
      <point x="727" y="135" type="curve"/>
      <point x="727" y="0" type="line"/>
    </contour>
    <contour>
      <point x="397" y="0" type="line"/>
      <point x="397" y="23" type="line"/>
      <point x="30" y="23" type="line"/>
      <point x="30" y="0" type="line"/>
    </contour>
    <contour>
      <point x="238" y="0" type="line"/>
      <point x="238" y="520" type="line"/>
      <point x="31" y="520" type="line"/>
      <point x="31" y="497" type="line"/>
      <point x="213" y="497" type="line"/>
      <point x="213" y="0" type="line"/>
    </contour>
    <contour>
      <point x="924" y="0" type="line"/>
      <point x="924" y="23" type="line"/>
      <point x="567" y="23" type="line"/>
      <point x="567" y="0" type="line"/>
    </contour>
    <contour>
      <point x="466" y="179" type="move" name="center"/>
    </contour>
    <contour>
      <point x="466" y="0" type="move" name="bottom"/>
    </contour>
    <contour>
      <point x="466" y="367" type="move" name="top"/>
    </contour>
  </outline>
</glyph>
<glyph name="k" format="1">
  <advance width="889"/>
  <unicode hex="006B"/>
  <outline>
    <contour>
      <point x="645" y="134"/>
      <point x="755" y="177"/>
      <point x="755" y="263" type="curve" smooth="yes"/>
      <point x="755" y="328"/>
      <point x="689" y="367"/>
      <point x="582" y="367" type="curve" smooth="yes"/>
      <point x="465" y="367"/>
      <point x="339" y="311"/>
      <point x="223" y="232" type="curve"/>
      <point x="223" y="212" type="line"/>
      <point x="339" y="288"/>
      <point x="462" y="344"/>
      <point x="577" y="344" type="curve" smooth="yes"/>
      <point x="671" y="344"/>
      <point x="730" y="317"/>
      <point x="730" y="262" type="curve" smooth="yes"/>
      <point x="730" y="194"/>
      <point x="623" y="157"/>
      <point x="472" y="157" type="curve" smooth="yes"/>
      <point x="380" y="157"/>
      <point x="266" y="170"/>
      <point x="222" y="177" type="curve"/>
      <point x="220" y="160" type="line"/>
      <point x="266" y="151"/>
      <point x="366" y="134"/>
      <point x="469" y="134" type="curve" smooth="yes"/>
    </contour>
    <contour>
      <point x="419" y="0" type="line"/>
      <point x="419" y="23" type="line"/>
      <point x="30" y="23" type="line"/>
      <point x="30" y="0" type="line"/>
    </contour>
    <contour>
      <point x="237" y="0" type="line"/>
      <point x="237" y="520" type="line"/>
      <point x="212" y="520" type="line"/>
      <point x="212" y="0" type="line"/>
    </contour>
    <contour>
      <point x="763" y="-20"/>
      <point x="816" y="31"/>
      <point x="829" y="99" type="curve"/>
      <point x="808" y="103" type="line"/>
      <point x="795" y="34"/>
      <point x="743" y="2"/>
      <point x="685" y="2" type="curve" smooth="yes"/>
      <point x="603" y="2"/>
      <point x="554" y="55"/>
      <point x="481" y="151" type="curve"/>
      <point x="456" y="151" type="line"/>
      <point x="520" y="57"/>
      <point x="592" y="-20"/>
      <point x="683" y="-20" type="curve" smooth="yes"/>
    </contour>
    <contour>
      <point x="237" y="497" type="line"/>
      <point x="237" y="520" type="line"/>
      <point x="30" y="520" type="line"/>
      <point x="30" y="497" type="line"/>
    </contour>
    <contour>
      <point x="473" y="367" type="move" name="top"/>
    </contour>
    <contour>
      <point x="473" y="0" type="move" name="bottom"/>
    </contour>
  </outline>
</glyph>
<glyph name="n" format="1">
  <advance width="957"/>
  <unicode hex="006E"/>
  <outline>
    <contour>
      <point x="772" y="0" type="line"/>
      <point x="772" y="135" type="line"/>
      <point x="772" y="257"/>
      <point x="723" y="367"/>
      <point x="567" y="367" type="curve" smooth="yes"/>
      <point x="431" y="367"/>
      <point x="308" y="263"/>
      <point x="244" y="211" type="curve"/>
      <point x="244" y="188" type="line"/>
      <point x="308" y="239"/>
      <point x="431" y="344"/>
      <point x="567" y="344" type="curve" smooth="yes"/>
      <point x="713" y="344"/>
      <point x="747" y="237"/>
      <point x="747" y="135" type="curve"/>
      <point x="747" y="0" type="line"/>
    </contour>
    <contour>
      <point x="417" y="0" type="line"/>
      <point x="417" y="23" type="line"/>
      <point x="50" y="23" type="line"/>
      <point x="50" y="0" type="line"/>
    </contour>
    <contour>
      <point x="257" y="0" type="line"/>
      <point x="257" y="357" type="line"/>
      <point x="232" y="357" type="line"/>
      <point x="232" y="0" type="line"/>
    </contour>
    <contour>
      <point x="257" y="334" type="line"/>
      <point x="257" y="357" type="line"/>
      <point x="50" y="357" type="line"/>
      <point x="50" y="334" type="line"/>
    </contour>
    <contour>
      <point x="944" y="0" type="line"/>
      <point x="944" y="23" type="line"/>
      <point x="587" y="23" type="line"/>
      <point x="587" y="0" type="line"/>
    </contour>
    <contour>
      <point x="519" y="367" type="move" name="top"/>
    </contour>
    <contour>
      <point x="509" y="0" type="move" name="bottom"/>
    </contour>
  </outline>
</glyph>
<glyph name="r" format="1">
  <advance width="745"/>
  <unicode hex="0072"/>
  <outline>
    <contour>
      <point x="376" y="287"/>
      <point x="499" y="344"/>
      <point x="627" y="344" type="curve"/>
      <point x="627" y="219" type="line"/>
      <point x="650" y="219" type="line"/>
      <point x="650" y="366" type="line"/>
      <point x="625" y="367" type="line"/>
      <point x="482" y="367"/>
      <point x="366" y="305"/>
      <point x="244" y="211" type="curve"/>
      <point x="244" y="188" type="line"/>
    </contour>
    <contour>
      <point x="439" y="0" type="line"/>
      <point x="439" y="23" type="line"/>
      <point x="50" y="23" type="line"/>
      <point x="50" y="0" type="line"/>
    </contour>
    <contour>
      <point x="257" y="0" type="line"/>
      <point x="257" y="357" type="line"/>
      <point x="232" y="357" type="line"/>
      <point x="232" y="0" type="line"/>
    </contour>
    <contour>
      <point x="257" y="334" type="line"/>
      <point x="257" y="357" type="line"/>
      <point x="50" y="357" type="line"/>
      <point x="50" y="334" type="line"/>
    </contour>
    <contour>
      <point x="355" y="357" type="move" name="top"/>
    </contour>
    <contour>
      <point x="355" y="0" type="move" name="bottom"/>
    </contour>
  </outline>
</glyph>
<glyph name="s" format="1">
  <advance width="753"/>
  <unicode hex="0073"/>
  <outline>
    <contour>
      <point x="557" y="-10"/>
      <point x="643" y="19"/>
      <point x="643" y="86" type="curve" smooth="yes"/>
      <point x="643" y="158"/>
      <point x="558" y="177"/>
      <point x="368" y="188" type="curve" smooth="yes"/>
      <point x="194" y="198"/>
      <point x="131" y="222"/>
      <point x="131" y="268" type="curve" smooth="yes"/>
      <point x="131" y="318"/>
      <point x="202" y="345"/>
      <point x="319" y="345" type="curve" smooth="yes"/>
      <point x="444" y="345"/>
      <point x="554" y="306"/>
      <point x="627" y="220" type="curve"/>
      <point x="627" y="220" type="line"/>
      <point x="627" y="357" type="line"/>
      <point x="605" y="357" type="line"/>
      <point x="605" y="257" type="line"/>
      <point x="620" y="250" type="line"/>
      <point x="571" y="313"/>
      <point x="462" y="367"/>
      <point x="324" y="367" type="curve" smooth="yes"/>
      <point x="173" y="367"/>
      <point x="107" y="327"/>
      <point x="107" y="267" type="curve" smooth="yes"/>
      <point x="107" y="204"/>
      <point x="185" y="173"/>
      <point x="368" y="163" type="curve" smooth="yes"/>
      <point x="551" y="153"/>
      <point x="619" y="137"/>
      <point x="619" y="85" type="curve" smooth="yes"/>
      <point x="619" y="27"/>
      <point x="523" y="12"/>
      <point x="418" y="12" type="curve" smooth="yes"/>
      <point x="297" y="12"/>
      <point x="169" y="50"/>
      <point x="100" y="136" type="curve"/>
      <point x="100" y="136" type="line"/>
      <point x="100" y="0" type="line"/>
      <point x="122" y="0" type="line"/>
      <point x="122" y="99" type="line"/>
      <point x="106" y="106" type="line"/>
      <point x="153" y="43"/>
      <point x="275" y="-10"/>
      <point x="413" y="-10" type="curve" smooth="yes"/>
    </contour>
    <contour>
      <point x="375" y="367" type="move" name="top"/>
    </contour>
    <contour>
      <point x="415" y="-10" type="move" name="bottom"/>
    </contour>
  </outline>
</glyph>
<glyph name="t" format="1">
  <advance width="523"/>
  <unicode hex="0074"/>
  <outline>
    <contour>
      <point x="356" y="-10"/>
      <point x="420" y="14"/>
      <point x="463" y="35" type="curve"/>
      <point x="453" y="56" type="line"/>
      <point x="412" y="35"/>
      <point x="353" y="13"/>
      <point x="284" y="13" type="curve" smooth="yes"/>
      <point x="222" y="13"/>
      <point x="180" y="41"/>
      <point x="180" y="123" type="curve"/>
      <point x="180" y="456" type="line"/>
      <point x="155" y="456" type="line"/>
      <point x="155" y="123" type="line"/>
      <point x="155" y="27"/>
      <point x="205" y="-10"/>
      <point x="286" y="-10" type="curve" smooth="yes"/>
    </contour>
    <contour>
      <point x="418" y="334" type="line"/>
      <point x="418" y="357" type="line"/>
      <point x="25" y="357" type="line"/>
      <point x="25" y="334" type="line"/>
    </contour>
    <contour>
      <point x="301" y="-10" type="move" name="bottom"/>
    </contour>
    <contour>
      <point x="261" y="456" type="move" name="top"/>
    </contour>
    <contour>
      <point x="354" y="419" type="move" name="topright"/>
    </contour>
    <contour>
      <point x="261" y="179" type="move" name="center"/>
    </contour>
  </outline>
</glyph>
<glyph name="w" format="1">
  <advance width="1025"/>
  <unicode hex="0077"/>
  <outline>
    <contour>
      <point x="359" y="-11" type="line"/>
      <point x="626" y="348" type="line"/>
      <point x="599" y="348" type="line"/>
      <point x="359" y="20" type="line"/>
      <point x="147" y="348" type="line"/>
      <point x="118" y="348" type="line"/>
      <point x="353" y="-11" type="line"/>
    </contour>
    <contour>
      <point x="667" y="-11" type="line"/>
      <point x="902" y="348" type="line"/>
      <point x="876" y="348" type="line"/>
      <point x="664" y="20" type="line"/>
      <point x="429" y="348" type="line"/>
      <point x="401" y="348" type="line"/>
      <point x="661" y="-11" type="line"/>
    </contour>
    <contour>
      <point x="132" y="334" type="line"/>
      <point x="144" y="334" type="line"/>
      <point x="257" y="334" type="line"/>
      <point x="257" y="357" type="line"/>
      <point x="5" y="357" type="line"/>
      <point x="5" y="334" type="line"/>
    </contour>
    <contour>
      <point x="425" y="335" type="line"/>
      <point x="601" y="335" type="line"/>
      <point x="681" y="335" type="line"/>
      <point x="681" y="357" type="line"/>
      <point x="344" y="357" type="line"/>
      <point x="344" y="335" type="line"/>
    </contour>
    <contour>
      <point x="874" y="334" type="line"/>
      <point x="885" y="334" type="line"/>
      <point x="1020" y="334" type="line"/>
      <point x="1020" y="357" type="line"/>
      <point x="767" y="357" type="line"/>
      <point x="767" y="334" type="line"/>
    </contour>
    <contour>
      <point x="513" y="357" type="move" name="top"/>
    </contour>
    <contour>
      <point x="513" y="0" type="move" name="bottom"/>
    </contour>
  </outline>
</glyph>
<glyph name="z" format="1">
  <advance width="765"/>
  <unicode hex="007A"/>
  <outline>
    <contour>
      <point x="611" y="259"/>
      <point x="498" y="227"/>
      <point x="380" y="190" type="curve" smooth="yes"/>
      <point x="269" y="155"/>
      <point x="154" y="116"/>
      <point x="100" y="1" type="curve"/>
      <point x="121" y="-10" type="line"/>
      <point x="174" y="96"/>
      <point x="280" y="136"/>
      <point x="385" y="170" type="curve" smooth="yes"/>
      <point x="509" y="209"/>
      <point x="632" y="240"/>
      <point x="669" y="358" type="curve"/>
      <point x="647" y="367" type="line"/>
    </contour>
    <contour>
      <point x="635" y="-10"/>
      <point x="692" y="41"/>
      <point x="705" y="121" type="curve"/>
      <point x="682" y="125" type="line"/>
      <point x="669" y="47"/>
      <point x="604" y="13"/>
      <point x="522" y="13" type="curve" smooth="yes"/>
      <point x="435" y="13"/>
      <point x="328" y="52"/>
      <point x="200" y="105" type="curve"/>
      <point x="184" y="90" type="line"/>
      <point x="314" y="35"/>
      <point x="424" y="-10"/>
      <point x="521" y="-10" type="curve" smooth="yes"/>
    </contour>
    <contour>
      <point x="135" y="219" type="line"/>
      <point x="135" y="345" type="line"/>
      <point x="351" y="345"/>
      <point x="470" y="290"/>
      <point x="585" y="250" type="curve"/>
      <point x="593" y="269" type="line"/>
      <point x="478" y="310"/>
      <point x="368" y="367"/>
      <point x="137" y="367" type="curve" smooth="yes"/>
      <point x="112" y="367" type="line"/>
      <point x="112" y="219" type="line"/>
    </contour>
    <contour>
      <point x="426" y="357" type="move" name="top"/>
    </contour>
    <contour>
      <point x="386" y="-10" type="move" name="bottom"/>
    </contour>
  </outline>
</glyph>
<glyph name="braceright" format="1">
  <advance width="479"/>
  <unicode hex="007D"/>
  <outline>
    <contour>
      <point x="265" y="-120"/>
      <point x="366" y="-87"/>
      <point x="366" y="-2" type="curve" smooth="yes"/>
      <point x="366" y="115"/>
      <point x="163" y="117"/>
      <point x="163" y="190" type="curve" smooth="yes"/>
      <point x="163" y="228"/>
      <point x="209" y="254"/>
      <point x="307" y="254" type="curve" smooth="yes"/>
      <point x="369" y="254" type="line"/>
      <point x="369" y="276" type="line"/>
      <point x="307" y="276" type="line" smooth="yes"/>
      <point x="209" y="276"/>
      <point x="163" y="302"/>
      <point x="163" y="340" type="curve" smooth="yes"/>
      <point x="163" y="418"/>
      <point x="366" y="410"/>
      <point x="366" y="532" type="curve" smooth="yes"/>
      <point x="366" y="617"/>
      <point x="265" y="650"/>
      <point x="174" y="650" type="curve" smooth="yes"/>
      <point x="113" y="650"/>
      <point x="55" y="639"/>
      <point x="10" y="625" type="curve"/>
      <point x="17" y="603" type="line"/>
      <point x="56" y="615"/>
      <point x="107" y="626"/>
      <point x="166" y="626" type="curve" smooth="yes"/>
      <point x="242" y="626"/>
      <point x="341" y="602"/>
      <point x="341" y="529" type="curve" smooth="yes"/>
      <point x="341" y="429"/>
      <point x="139" y="439"/>
      <point x="139" y="339" type="curve" smooth="yes"/>
      <point x="139" y="291"/>
      <point x="205" y="260"/>
      <point x="293" y="260" type="curve"/>
      <point x="293" y="270" type="line"/>
      <point x="205" y="270"/>
      <point x="139" y="239"/>
      <point x="139" y="191" type="curve" smooth="yes"/>
      <point x="139" y="91"/>
      <point x="341" y="101"/>
      <point x="341" y="1" type="curve" smooth="yes"/>
      <point x="341" y="-72"/>
      <point x="242" y="-96"/>
      <point x="166" y="-96" type="curve" smooth="yes"/>
      <point x="107" y="-96"/>
      <point x="56" y="-84"/>
      <point x="17" y="-73" type="curve"/>
      <point x="10" y="-95" type="line"/>
      <point x="55" y="-109"/>
      <point x="113" y="-120"/>
      <point x="174" y="-120" type="curve" smooth="yes"/>
    </contour>
  </outline>
</glyph>
<glyph name="sterling" format="1">
  <advance width="765"/>
  <unicode hex="00A3"/>
  <outline>
    <contour>
      <point x="87" y="-10" type="line" smooth="yes"/>
      <point x="196" y="-10"/>
      <point x="270" y="43"/>
      <point x="270" y="118" type="curve" smooth="yes"/>
      <point x="270" y="204"/>
      <point x="188" y="255"/>
      <point x="188" y="335" type="curve" smooth="yes"/>
      <point x="188" y="412"/>
      <point x="268" y="457"/>
      <point x="373" y="457" type="curve" smooth="yes"/>
      <point x="490" y="457"/>
      <point x="590" y="424"/>
      <point x="687" y="326" type="curve"/>
      <point x="693" y="329" type="line"/>
      <point x="693" y="480" type="line"/>
      <point x="670" y="480" type="line"/>
      <point x="670" y="360" type="line"/>
      <point x="684" y="358" type="line"/>
      <point x="612" y="430"/>
      <point x="509" y="480"/>
      <point x="375" y="480" type="curve" smooth="yes"/>
      <point x="247" y="480"/>
      <point x="163" y="422"/>
      <point x="163" y="335" type="curve" smooth="yes"/>
      <point x="163" y="250"/>
      <point x="246" y="193"/>
      <point x="246" y="119" type="curve" smooth="yes"/>
      <point x="246" y="52"/>
      <point x="175" y="12"/>
      <point x="87" y="12" type="curve" smooth="yes"/>
      <point x="60" y="12" type="line"/>
      <point x="60" y="-10" type="line"/>
    </contour>
    <contour>
      <point x="581" y="166" type="line"/>
      <point x="581" y="188" type="line"/>
      <point x="60" y="188" type="line"/>
      <point x="60" y="166" type="line"/>
    </contour>
    <contour>
      <point x="655" y="-10"/>
      <point x="712" y="41"/>
      <point x="725" y="121" type="curve"/>
      <point x="702" y="125" type="line"/>
      <point x="689" y="47"/>
      <point x="624" y="13"/>
      <point x="552" y="13" type="curve" smooth="yes"/>
      <point x="473" y="13"/>
      <point x="346" y="67"/>
      <point x="261" y="115" type="curve"/>
      <point x="251" y="96" type="line"/>
      <point x="337" y="46"/>
      <point x="463" y="-10"/>
      <point x="551" y="-10" type="curve" smooth="yes"/>
    </contour>
    <contour>
      <point x="583" y="291" type="line"/>
      <point x="583" y="313" type="line"/>
      <point x="62" y="313" type="line"/>
      <point x="62" y="291" type="line"/>
    </contour>
  </outline>
</glyph>
<glyph name="degree" format="1">
  <advance width="371"/>
  <unicode hex="00B0"/>
  <outline>
    <contour>
      <point x="269" y="363"/>
      <point x="331" y="415"/>
      <point x="331" y="489" type="curve"/>
      <point x="331" y="566"/>
      <point x="269" y="614"/>
      <point x="186" y="614" type="curve"/>
      <point x="107" y="614"/>
      <point x="40" y="566"/>
      <point x="40" y="489" type="curve"/>
      <point x="40" y="415"/>
      <point x="107" y="363"/>
      <point x="186" y="363" type="curve"/>
    </contour>
    <contour>
      <point x="118" y="385"/>
      <point x="63" y="429"/>
      <point x="63" y="489" type="curve"/>
      <point x="63" y="551"/>
      <point x="118" y="592"/>
      <point x="186" y="592" type="curve"/>
      <point x="257" y="592"/>
      <point x="308" y="551"/>
      <point x="308" y="489" type="curve"/>
      <point x="308" y="429"/>
      <point x="257" y="385"/>
      <point x="186" y="385" type="curve"/>
    </contour>
  </outline>
</glyph>
<glyph name="paragraph" format="1">
  <advance width="917"/>
  <unicode hex="00B6"/>
  <outline>
    <contour>
      <point x="648" y="-175"/>
      <point x="737" y="-111"/>
      <point x="737" y="23" type="curve" smooth="yes"/>
      <point x="737" y="520" type="line"/>
      <point x="712" y="520" type="line"/>
      <point x="712" y="22" type="line" smooth="yes"/>
      <point x="712" y="-96"/>
      <point x="631" y="-152"/>
      <point x="532" y="-152" type="curve" smooth="yes"/>
      <point x="459" y="-152"/>
      <point x="389" y="-127"/>
      <point x="340" y="-105" type="curve"/>
      <point x="333" y="-128" type="line"/>
      <point x="382" y="-150"/>
      <point x="450" y="-175"/>
      <point x="531" y="-175" type="curve" smooth="yes"/>
    </contour>
    <contour>
      <point x="595" y="-152" type="line"/>
      <point x="595" y="450" type="line"/>
      <point x="571" y="460" type="line"/>
      <point x="571" y="-156" type="line"/>
    </contour>
    <contour>
      <point x="422" y="185"/>
      <point x="520" y="235"/>
      <point x="586" y="282" type="curve"/>
      <point x="586" y="306" type="line"/>
      <point x="511" y="253"/>
      <point x="407" y="208"/>
      <point x="293" y="208" type="curve" smooth="yes"/>
      <point x="180" y="208"/>
      <point x="95" y="259"/>
      <point x="95" y="349" type="curve" smooth="yes"/>
      <point x="95" y="441"/>
      <point x="194" y="508"/>
      <point x="328" y="507" type="curve" smooth="yes"/>
      <point x="471" y="506"/>
      <point x="615" y="447"/>
      <point x="728" y="354" type="curve"/>
      <point x="728" y="378" type="line"/>
      <point x="619" y="467"/>
      <point x="477" y="530"/>
      <point x="328" y="530" type="curve" smooth="yes"/>
      <point x="183" y="530"/>
      <point x="70" y="455"/>
      <point x="70" y="349" type="curve" smooth="yes"/>
      <point x="70" y="243"/>
      <point x="170" y="185"/>
      <point x="293" y="185" type="curve" smooth="yes"/>
    </contour>
  </outline>
</glyph>
<glyph name="guillemotright" format="1">
  <advance width="700"/>
  <unicode hex="00BB"/>
  <outline>
    <contour>
      <point x="400" y="82"/>
      <point x="498" y="174"/>
      <point x="658" y="174" type="curve" smooth="yes"/>
      <point x="670" y="174" type="line"/>
      <point x="670" y="197" type="line"/>
      <point x="658" y="197" type="line" smooth="yes"/>
      <point x="498" y="197"/>
      <point x="400" y="289"/>
      <point x="361" y="383" type="curve"/>
      <point x="341" y="374" type="line"/>
      <point x="382" y="275"/>
      <point x="486" y="182"/>
      <point x="634" y="182" type="curve"/>
      <point x="634" y="189" type="line"/>
      <point x="486" y="189"/>
      <point x="382" y="96"/>
      <point x="341" y="-3" type="curve"/>
      <point x="361" y="-12" type="line"/>
    </contour>
    <contour>
      <point x="124" y="77"/>
      <point x="227" y="174"/>
      <point x="357" y="174" type="curve" smooth="yes"/>
      <point x="359" y="174" type="line"/>
      <point x="359" y="197" type="line"/>
      <point x="357" y="197" type="line" smooth="yes"/>
      <point x="227" y="197"/>
      <point x="124" y="294"/>
      <point x="90" y="383" type="curve"/>
      <point x="70" y="374" type="line"/>
      <point x="106" y="280"/>
      <point x="215" y="182"/>
      <point x="333" y="182" type="curve"/>
      <point x="333" y="189" type="line"/>
      <point x="215" y="189"/>
      <point x="106" y="91"/>
      <point x="70" y="-3" type="curve"/>
      <point x="90" y="-12" type="line"/>
    </contour>
  </outline>
</glyph>
<glyph name="Oslash" format="1">
  <advance width="906"/>
  <unicode hex="00D8"/>
  <outline>
    <contour>
      <point x="335" y="9" type="line"/>
      <point x="338" y="15" type="line"/>
      <point x="591" y="503" type="line"/>
      <point x="595" y="510" type="line"/>
      <point x="632" y="581" type="line"/>
      <point x="604" y="581" type="line"/>
      <point x="569" y="514" type="line"/>
      <point x="565" y="507" type="line"/>
      <point x="313" y="23" type="line"/>
      <point x="308" y="14" type="line"/>
      <point x="271" y="-59" type="line"/>
      <point x="299" y="-59" type="line"/>
    </contour>
    <component base="O"/>
  </outline>
</glyph>
<glyph name="Thorn" format="1">
  <advance width="882"/>
  <unicode hex="00DE"/>
  <outline>
    <contour>
      <point x="672" y="143" type="line" smooth="yes"/>
      <point x="764" y="143"/>
      <point x="822" y="188"/>
      <point x="822" y="260" type="curve" smooth="yes"/>
      <point x="822" y="332"/>
      <point x="764" y="377"/>
      <point x="672" y="377" type="curve" smooth="yes"/>
      <point x="249" y="377" type="line"/>
      <point x="249" y="354" type="line"/>
      <point x="679" y="354" type="line" smooth="yes"/>
      <point x="745" y="354"/>
      <point x="797" y="323"/>
      <point x="797" y="260" type="curve" smooth="yes"/>
      <point x="797" y="197"/>
      <point x="745" y="166"/>
      <point x="679" y="166" type="curve" smooth="yes"/>
      <point x="249" y="166" type="line"/>
      <point x="249" y="143" type="line"/>
    </contour>
    <contour>
      <point x="445" y="0" type="line"/>
      <point x="445" y="23" type="line"/>
      <point x="254" y="23" type="line"/>
      <point x="246" y="23" type="line"/>
      <point x="56" y="23" type="line"/>
      <point x="56" y="0" type="line"/>
    </contour>
    <contour>
      <point x="263" y="13" type="line" smooth="yes"/>
      <point x="263" y="507" type="line" smooth="yes"/>
      <point x="238" y="507" type="line" smooth="yes"/>
      <point x="238" y="13" type="line" smooth="yes"/>
    </contour>
    <contour>
      <point x="244" y="497" type="line"/>
      <point x="251" y="497" type="line"/>
      <point x="445" y="497" type="line" smooth="yes"/>
      <point x="445" y="520" type="line" smooth="yes"/>
      <point x="56" y="520" type="line" smooth="yes"/>
      <point x="56" y="497" type="line" smooth="yes"/>
    </contour>
  </outline>
</glyph>
<glyph name="ae" format="1">
  <advance width="1225"/>
  <unicode hex="00E6"/>
  <outline>
    <contour>
      <point x="956" y="-20"/>
      <point x="1053" y="9"/>
      <point x="1130" y="55" type="curve"/>
      <point x="1119" y="74" type="line"/>
      <point x="1043" y="30"/>
      <point x="952" y="2"/>
      <point x="855" y="3" type="curve"/>
      <point x="745" y="2"/>
      <point x="605" y="62"/>
      <point x="605" y="167" type="curve" smooth="yes"/>
      <point x="605" y="290"/>
      <point x="766" y="353"/>
      <point x="892" y="353" type="curve" smooth="yes"/>
      <point x="1002" y="353"/>
      <point x="1104" y="324"/>
      <point x="1104" y="258" type="curve" smooth="yes"/>
      <point x="1104" y="184"/>
      <point x="995" y="165"/>
      <point x="900" y="165" type="curve" smooth="yes"/>
      <point x="802" y="165"/>
      <point x="703" y="176"/>
      <point x="599" y="188" type="curve"/>
      <point x="598" y="165" type="line"/>
      <point x="703" y="152"/>
      <point x="803" y="142"/>
      <point x="900" y="142" type="curve" smooth="yes"/>
      <point x="1010" y="142"/>
      <point x="1129" y="171"/>
      <point x="1129" y="260" type="curve" smooth="yes"/>
      <point x="1129" y="340"/>
      <point x="1015" y="376"/>
      <point x="896" y="376" type="curve" smooth="yes"/>
      <point x="746" y="376"/>
      <point x="607" y="306"/>
      <point x="591" y="197" type="curve"/>
      <point x="601" y="197" type="line"/>
      <point x="601" y="297"/>
      <point x="536" y="377"/>
      <point x="394" y="377" type="curve" smooth="yes"/>
      <point x="297" y="377"/>
      <point x="206" y="356"/>
      <point x="112" y="322" type="curve"/>
      <point x="119" y="300" type="line"/>
      <point x="207" y="331"/>
      <point x="293" y="354"/>
      <point x="394" y="354" type="curve" smooth="yes"/>
      <point x="529" y="354"/>
      <point x="582" y="276"/>
      <point x="582" y="197" type="curve" smooth="yes"/>
      <point x="582" y="167" type="line"/>
      <point x="582" y="41"/>
      <point x="736" y="-20"/>
      <point x="855" y="-20" type="curve"/>
    </contour>
    <contour>
      <point x="372" y="-20"/>
      <point x="511" y="21"/>
      <point x="610" y="92" type="curve"/>
      <point x="610" y="114" type="line"/>
      <point x="506" y="45"/>
      <point x="370" y="3"/>
      <point x="267" y="3" type="curve"/>
      <point x="194" y="3"/>
      <point x="115" y="28"/>
      <point x="115" y="89" type="curve"/>
      <point x="115" y="158"/>
      <point x="202" y="188"/>
      <point x="306" y="188" type="curve" smooth="yes"/>
      <point x="409" y="188"/>
      <point x="500" y="176"/>
      <point x="593" y="165" type="curve"/>
      <point x="593" y="188" type="line"/>
      <point x="500" y="199"/>
      <point x="411" y="211"/>
      <point x="306" y="211" type="curve" smooth="yes"/>
      <point x="188" y="211"/>
      <point x="90" y="174"/>
      <point x="90" y="89" type="curve"/>
      <point x="90" y="11"/>
      <point x="166" y="-20"/>
      <point x="267" y="-20" type="curve"/>
    </contour>
    <contour>
      <point x="1130" y="55" type="move" name="ogonek"/>
    </contour>
    <contour>
      <point x="599" y="-10" type="move" name="bottom"/>
    </contour>
    <contour>
      <point x="594" y="367" type="move" name="top"/>
    </contour>
  </outline>
</glyph>
<glyph name="eth" format="1">
  <advance width="734"/>
  <unicode hex="00F0"/>
  <outline>
    <contour>
      <point x="517" y="-20"/>
      <point x="654" y="62"/>
      <point x="654" y="224" type="curve" smooth="yes"/>
      <point x="654" y="417"/>
      <point x="462" y="541"/>
      <point x="210" y="572" type="curve"/>
      <point x="204" y="549" type="line"/>
      <point x="460" y="517"/>
      <point x="630" y="400"/>
      <point x="630" y="224" type="curve" smooth="yes"/>
      <point x="630" y="74"/>
      <point x="500" y="4"/>
      <point x="346" y="4" type="curve" smooth="yes"/>
      <point x="202" y="4"/>
      <point x="100" y="64"/>
      <point x="100" y="148" type="curve" smooth="yes"/>
      <point x="100" y="234"/>
      <point x="190" y="292"/>
      <point x="331" y="292" type="curve" smooth="yes"/>
      <point x="450" y="292"/>
      <point x="559" y="254"/>
      <point x="638" y="199" type="curve"/>
      <point x="638" y="224" type="line"/>
      <point x="560" y="276"/>
      <point x="444" y="315"/>
      <point x="334" y="315" type="curve" smooth="yes"/>
      <point x="191" y="315"/>
      <point x="75" y="255"/>
      <point x="75" y="147" type="curve" smooth="yes"/>
      <point x="75" y="43"/>
      <point x="199" y="-20"/>
      <point x="346" y="-20" type="curve" smooth="yes"/>
    </contour>
    <contour>
      <point x="509" y="605" type="line"/>
      <point x="491" y="617" type="line"/>
      <point x="323" y="378" type="line"/>
      <point x="341" y="367" type="line"/>
    </contour>
  </outline>
</glyph>
<glyph name="thorn" format="1">
  <advance width="859"/>
  <unicode hex="00FE"/>
  <outline>
    <contour>
      <point x="639" y="-10"/>
      <point x="779" y="67"/>
      <point x="779" y="195" type="curve"/>
      <point x="779" y="303"/>
      <point x="684" y="367"/>
      <point x="541" y="367" type="curve"/>
      <point x="411" y="367"/>
      <point x="289" y="303"/>
      <point x="173" y="219" type="curve"/>
      <point x="173" y="196" type="line"/>
      <point x="298" y="284"/>
      <point x="427" y="344"/>
      <point x="541" y="344" type="curve"/>
      <point x="674" y="344"/>
      <point x="754" y="283"/>
      <point x="754" y="195" type="curve"/>
      <point x="754" y="85"/>
      <point x="628" y="12"/>
      <point x="476" y="13" type="curve"/>
      <point x="357" y="12"/>
      <point x="244" y="55"/>
      <point x="170" y="95" type="curve"/>
      <point x="170" y="73" type="line"/>
      <point x="242" y="32"/>
      <point x="347" y="-10"/>
      <point x="476" y="-10" type="curve"/>
    </contour>
    <contour>
      <point x="369" y="-165" type="line"/>
      <point x="369" y="-142" type="line"/>
      <point x="-20" y="-142" type="line"/>
      <point x="-20" y="-165" type="line"/>
    </contour>
    <contour>
      <point x="187" y="-151" type="line"/>
      <point x="187" y="520" type="line"/>
      <point x="-20" y="520" type="line"/>
      <point x="-20" y="497" type="line"/>
      <point x="162" y="497" type="line"/>
      <point x="162" y="-151" type="line"/>
    </contour>
  </outline>
</glyph>
<glyph name="oe" format="1">
  <advance width="1300"/>
  <unicode hex="0153"/>
  <outline>
    <contour>
      <point x="538" y="-20"/>
      <point x="677" y="50"/>
      <point x="677" y="179" type="curve" smooth="yes"/>
      <point x="677" y="312"/>
      <point x="538" y="377"/>
      <point x="379" y="377" type="curve" smooth="yes"/>
      <point x="221" y="376"/>
      <point x="80" y="312"/>
      <point x="80" y="179" type="curve" smooth="yes"/>
      <point x="80" y="50"/>
      <point x="221" y="-20"/>
      <point x="379" y="-20" type="curve" smooth="yes"/>
    </contour>
    <contour>
      <point x="232" y="3"/>
      <point x="105" y="66"/>
      <point x="105" y="179" type="curve" smooth="yes"/>
      <point x="105" y="295"/>
      <point x="232" y="353"/>
      <point x="379" y="354" type="curve" smooth="yes"/>
      <point x="528" y="354"/>
      <point x="656" y="295"/>
      <point x="656" y="179" type="curve" smooth="yes"/>
      <point x="656" y="66"/>
      <point x="528" y="3"/>
      <point x="379" y="3" type="curve" smooth="yes"/>
    </contour>
    <contour>
      <point x="1031" y="-20"/>
      <point x="1128" y="9"/>
      <point x="1205" y="55" type="curve"/>
      <point x="1194" y="74" type="line"/>
      <point x="1118" y="30"/>
      <point x="1027" y="2"/>
      <point x="930" y="3" type="curve" smooth="yes"/>
      <point x="820" y="2"/>
      <point x="681" y="62"/>
      <point x="681" y="167" type="curve" smooth="yes"/>
      <point x="681" y="290"/>
      <point x="841" y="353"/>
      <point x="967" y="353" type="curve" smooth="yes"/>
      <point x="1077" y="353"/>
      <point x="1179" y="324"/>
      <point x="1179" y="258" type="curve" smooth="yes"/>
      <point x="1179" y="192"/>
      <point x="1070" y="165"/>
      <point x="975" y="165" type="curve" smooth="yes"/>
      <point x="897" y="165"/>
      <point x="766" y="188"/>
      <point x="676" y="217" type="curve"/>
      <point x="677" y="194" type="line"/>
      <point x="766" y="165"/>
      <point x="897" y="142"/>
      <point x="975" y="142" type="curve" smooth="yes"/>
      <point x="1085" y="142"/>
      <point x="1204" y="179"/>
      <point x="1204" y="260" type="curve" smooth="yes"/>
      <point x="1204" y="340"/>
      <point x="1090" y="376"/>
      <point x="971" y="376" type="curve" smooth="yes"/>
      <point x="821" y="376"/>
      <point x="663" y="297"/>
      <point x="663" y="185" type="curve" smooth="yes"/>
      <point x="663" y="165" type="line" smooth="yes"/>
      <point x="663" y="39"/>
      <point x="811" y="-20"/>
      <point x="930" y="-20" type="curve" smooth="yes"/>
    </contour>
    <contour>
      <point x="666" y="2" type="move" name="bottom"/>
    </contour>
    <contour>
      <point x="1205" y="55" type="move" name="ogonek"/>
    </contour>
    <contour>
      <point x="666" y="357" type="move" name="top"/>
    </contour>
    <contour>
      <point x="1171" y="357" type="move" name="topright"/>
    </contour>
    <contour>
      <point x="666" y="179" type="move" name="center"/>
    </contour>
  </outline>
</glyph>
<glyph name="acutecomb" format="1">
  <advance width="490"/>
  <unicode hex="0301"/>
  <outline>
    <contour>
      <point x="339" y="761" type="line"/>
      <point x="350" y="733" type="line"/>
      <point x="46" y="612" type="line"/>
      <point x="40" y="630" type="line"/>
    </contour>
    <contour>
      <point x="118" y="520" type="move" name="_top"/>
    </contour>
  </outline>
</glyph>
<glyph name="uni0302" format="1">
  <advance width="464"/>
  <unicode hex="0302"/>
  <outline>
    <contour>
      <point x="232" y="679" type="line"/>
      <point x="398" y="552" type="line"/>
      <point x="409" y="565" type="line"/>
      <point x="242" y="707" type="line"/>
      <point x="222" y="707" type="line"/>
      <point x="55" y="565" type="line"/>
      <point x="66" y="552" type="line"/>
    </contour>
    <contour>
      <point x="232" y="520" type="move" name="_top"/>
    </contour>
  </outline>
</glyph>
<glyph name="tildecomb" format="1">
  <advance width="563"/>
  <unicode hex="0303"/>
  <outline>
    <contour>
      <point x="445" y="626"/>
      <point x="482" y="671"/>
      <point x="493" y="738" type="curve"/>
      <point x="472" y="742" type="line"/>
      <point x="461" y="675"/>
      <point x="426" y="648"/>
      <point x="388" y="648" type="curve" smooth="yes"/>
      <point x="354" y="648"/>
      <point x="323" y="669"/>
      <point x="291" y="692" type="curve" smooth="yes"/>
      <point x="256" y="716"/>
      <point x="223" y="742"/>
      <point x="178" y="742" type="curve" smooth="yes"/>
      <point x="118" y="742"/>
      <point x="81" y="696"/>
      <point x="70" y="628" type="curve"/>
      <point x="91" y="624" type="line"/>
      <point x="102" y="692"/>
      <point x="137" y="720"/>
      <point x="176" y="720" type="curve" smooth="yes"/>
      <point x="211" y="720"/>
      <point x="240" y="699"/>
      <point x="272" y="676" type="curve" smooth="yes"/>
      <point x="307" y="652"/>
      <point x="342" y="626"/>
      <point x="386" y="626" type="curve" smooth="yes"/>
    </contour>
    <contour>
      <point x="291" y="520" type="move" name="_top"/>
    </contour>
  </outline>
</glyph>
<glyph name="uni0306" format="1">
  <advance width="486"/>
  <unicode hex="0306"/>
  <outline>
    <contour>
      <point x="317" y="632"/>
      <point x="376" y="684"/>
      <point x="396" y="754" type="curve"/>
      <point x="416" y="749" type="line"/>
      <point x="401" y="679"/>
      <point x="340" y="608"/>
      <point x="243" y="608" type="curve"/>
      <point x="146" y="608"/>
      <point x="85" y="679"/>
      <point x="70" y="749" type="curve"/>
      <point x="90" y="754" type="line"/>
      <point x="110" y="684"/>
      <point x="171" y="632"/>
      <point x="244" y="632" type="curve"/>
    </contour>
    <contour>
      <point x="243" y="520" type="move" name="_top"/>
    </contour>
  </outline>
</glyph>
<glyph name="hookabovecomb" format="1">
  <advance width="383"/>
  <unicode hex="0309"/>
  <outline>
    <contour>
      <point x="253" y="554" type="line"/>
      <point x="286" y="587"/>
      <point x="308" y="614"/>
      <point x="308" y="651" type="curve" smooth="yes"/>
      <point x="308" y="696"/>
      <point x="268" y="726"/>
      <point x="208" y="726" type="curve" smooth="yes"/>
      <point x="158" y="726"/>
      <point x="119" y="706"/>
      <point x="92" y="687" type="curve"/>
      <point x="103" y="669" type="line"/>
      <point x="131" y="686"/>
      <point x="165" y="703"/>
      <point x="208" y="703" type="curve" smooth="yes"/>
      <point x="255" y="703"/>
      <point x="283" y="680"/>
      <point x="283" y="648" type="curve" smooth="yes"/>
      <point x="283" y="614"/>
      <point x="260" y="591"/>
      <point x="243" y="563" type="curve"/>
    </contour>
    <contour>
      <point x="178" y="518" type="move" name="_hook"/>
    </contour>
  </outline>
</glyph>
<glyph name="uni030B" format="1">
  <advance width="510"/>
  <unicode hex="030B"/>
  <outline>
    <contour>
      <point x="445" y="763" type="line"/>
      <point x="428" y="783" type="line"/>
      <point x="261" y="616" type="line"/>
      <point x="270" y="606" type="line"/>
    </contour>
    <contour>
      <point x="249" y="763" type="line"/>
      <point x="232" y="783" type="line"/>
      <point x="65" y="616" type="line"/>
      <point x="74" y="606" type="line"/>
    </contour>
    <contour>
      <point x="247" y="520" type="move" name="_top"/>
    </contour>
  </outline>
</glyph>
<glyph name="uni030C" format="1">
  <advance width="464"/>
  <unicode hex="030C"/>
  <outline>
    <contour>
      <point x="232" y="586" type="line"/>
      <point x="66" y="713" type="line"/>
      <point x="55" y="700" type="line"/>
      <point x="222" y="558" type="line"/>
      <point x="242" y="558" type="line"/>
      <point x="409" y="700" type="line"/>
      <point x="398" y="713" type="line"/>
    </contour>
    <contour>
      <point x="232" y="520" type="move" name="_top"/>
    </contour>
  </outline>
</glyph>
<glyph name="uni0414" format="1">
  <advance width="938"/>
  <unicode hex="0414"/>
  <outline>
    <contour>
      <point x="772" y="13" type="line"/>
      <point x="538" y="510" type="line" smooth="yes"/>
      <point x="400" y="510" type="line"/>
      <point x="167" y="15" type="line"/>
      <point x="194" y="15" type="line"/>
      <point x="421" y="502" type="line"/>
      <point x="518" y="502" type="line"/>
      <point x="745" y="13" type="line"/>
    </contour>
    <contour>
      <point x="194" y="-108" type="line"/>
      <point x="194" y="15" type="line"/>
      <point x="167" y="15" type="line"/>
      <point x="179" y="-108" type="line"/>
    </contour>
    <contour>
      <point x="758" y="0" type="line"/>
      <point x="758" y="22" type="line"/>
      <point x="182" y="22" type="line"/>
      <point x="182" y="0" type="line"/>
    </contour>
    <contour>
      <point x="760" y="-110" type="line"/>
      <point x="772" y="13" type="line"/>
      <point x="745" y="13" type="line"/>
      <point x="745" y="-110" type="line"/>
    </contour>
    <contour>
      <point x="707" y="497" type="line"/>
      <point x="707" y="520" type="line"/>
      <point x="231" y="520" type="line"/>
      <point x="231" y="497" type="line"/>
    </contour>
  </outline>
</glyph>
<glyph name="uni0416" format="1">
  <advance width="1320"/>
  <unicode hex="0416"/>
  <outline>
    <contour>
      <point x="833" y="0" type="line" smooth="yes"/>
      <point x="833" y="23" type="line" smooth="yes"/>
      <point x="488" y="23" type="line" smooth="yes"/>
      <point x="488" y="0" type="line" smooth="yes"/>
    </contour>
    <contour>
      <point x="673" y="13" type="line" smooth="yes"/>
      <point x="673" y="507" type="line" smooth="yes"/>
      <point x="648" y="507" type="line" smooth="yes"/>
      <point x="648" y="13" type="line" smooth="yes"/>
    </contour>
    <contour>
      <point x="833" y="497" type="line" smooth="yes"/>
      <point x="833" y="520" type="line" smooth="yes"/>
      <point x="488" y="520" type="line" smooth="yes"/>
      <point x="488" y="497" type="line" smooth="yes"/>
    </contour>
    <contour>
      <point x="625" y="249" type="line"/>
      <point x="650" y="260" type="line"/>
      <point x="237" y="507" type="line"/>
      <point x="190" y="507" type="line"/>
    </contour>
    <contour>
      <point x="240" y="10" type="line"/>
      <point x="650" y="260" type="line"/>
      <point x="611" y="264" type="line"/>
      <point x="194" y="10" type="line"/>
    </contour>
    <contour>
      <point x="400" y="497" type="line" smooth="yes"/>
      <point x="400" y="520" type="line" smooth="yes"/>
      <point x="68" y="520" type="line" smooth="yes"/>
      <point x="68" y="497" type="line"/>
    </contour>
    <contour>
      <point x="400" y="0" type="line" smooth="yes"/>
      <point x="400" y="23" type="line" smooth="yes"/>
      <point x="68" y="23" type="line" smooth="yes"/>
      <point x="68" y="0" type="line" smooth="yes"/>
    </contour>
    <contour>
      <point x="1083" y="13" type="line"/>
      <point x="1130" y="13" type="line"/>
      <point x="695" y="271" type="line"/>
      <point x="670" y="260" type="line"/>
    </contour>
    <contour>
      <point x="1126" y="510" type="line"/>
      <point x="1080" y="510" type="line"/>
      <point x="670" y="260" type="line"/>
      <point x="709" y="256" type="line"/>
    </contour>
    <contour>
      <point x="1252" y="0" type="line" smooth="yes"/>
      <point x="1252" y="23" type="line" smooth="yes"/>
      <point x="920" y="23" type="line" smooth="yes"/>
      <point x="920" y="0" type="line" smooth="yes"/>
    </contour>
    <contour>
      <point x="1252" y="497" type="line" smooth="yes"/>
      <point x="1252" y="520" type="line" smooth="yes"/>
      <point x="920" y="520" type="line" smooth="yes"/>
      <point x="920" y="497" type="line" smooth="yes"/>
    </contour>
  </outline>
</glyph>
<glyph name="uni0424" format="1">
  <advance width="906"/>
  <unicode hex="0424"/>
  <outline>
    <contour>
      <point x="684" y="33"/>
      <point x="836" y="101"/>
      <point x="836" y="236" type="curve" smooth="yes"/>
      <point x="836" y="374"/>
      <point x="684" y="443"/>
      <point x="453" y="443" type="curve" smooth="yes"/>
      <point x="222" y="443"/>
      <point x="70" y="374"/>
      <point x="70" y="236" type="curve" smooth="yes"/>
      <point x="70" y="101"/>
      <point x="222" y="33"/>
      <point x="453" y="33" type="curve" smooth="yes"/>
    </contour>
    <contour>
      <point x="658" y="-85" type="line" smooth="yes"/>
      <point x="658" y="-62" type="line" smooth="yes"/>
      <point x="249" y="-62" type="line" smooth="yes"/>
      <point x="249" y="-85" type="line" smooth="yes"/>
    </contour>
    <contour>
      <point x="232" y="55"/>
      <point x="95" y="119"/>
      <point x="95" y="236" type="curve" smooth="yes"/>
      <point x="95" y="357"/>
      <point x="232" y="421"/>
      <point x="453" y="421" type="curve" smooth="yes"/>
      <point x="673" y="421"/>
      <point x="811" y="357"/>
      <point x="811" y="236" type="curve" smooth="yes"/>
      <point x="811" y="119"/>
      <point x="673" y="55"/>
      <point x="453" y="55" type="curve" smooth="yes"/>
    </contour>
    <contour>
      <point x="466" y="-72" type="line" smooth="yes"/>
      <point x="466" y="547" type="line" smooth="yes"/>
      <point x="441" y="547" type="line" smooth="yes"/>
      <point x="441" y="-72" type="line" smooth="yes"/>
    </contour>
    <contour>
      <point x="658" y="537" type="line" smooth="yes"/>
      <point x="658" y="560" type="line" smooth="yes"/>
      <point x="249" y="560" type="line" smooth="yes"/>
      <point x="249" y="537" type="line" smooth="yes"/>
    </contour>
  </outline>
</glyph>
<glyph name="emdash" format="1">
  <advance width="882"/>
  <unicode hex="2014"/>
  <outline>
    <contour>
      <point x="28" y="190" type="line"/>
      <point x="28" y="167" type="line"/>
      <point x="854" y="167" type="line"/>
      <point x="854" y="190" type="line"/>
    </contour>
  </outline>
</glyph>
<glyph name="quotereversed" format="1">
  <advance width="267"/>
  <unicode hex="201B"/>
  <outline>
    <contour>
      <point x="193" y="369" type="line"/>
      <point x="143" y="414"/>
      <point x="102" y="459"/>
      <point x="95" y="503" type="curve"/>
      <point x="107" y="500"/>
      <point x="120" y="498"/>
      <point x="135" y="498" type="curve" smooth="yes"/>
      <point x="160" y="498"/>
      <point x="178" y="510"/>
      <point x="178" y="528" type="curve" smooth="yes"/>
      <point x="178" y="547"/>
      <point x="159" y="562"/>
      <point x="128" y="562" type="curve" smooth="yes"/>
      <point x="93" y="562"/>
      <point x="74" y="542"/>
      <point x="74" y="510" type="curve" smooth="yes"/>
      <point x="74" y="467"/>
      <point x="120" y="405"/>
      <point x="181" y="357" type="curve"/>
    </contour>
  </outline>
</glyph>
<glyph name="quotedblbase" format="1">
  <advance width="410"/>
  <unicode hex="201E"/>
  <outline>
    <contour>
      <point x="289" y="-104"/>
      <point x="336" y="-42"/>
      <point x="336" y="1" type="curve" smooth="yes"/>
      <point x="336" y="33"/>
      <point x="317" y="53"/>
      <point x="282" y="53" type="curve" smooth="yes"/>
      <point x="251" y="53"/>
      <point x="232" y="38"/>
      <point x="232" y="19" type="curve" smooth="yes"/>
      <point x="232" y="0"/>
      <point x="250" y="-11"/>
      <point x="275" y="-11" type="curve" smooth="yes"/>
      <point x="290" y="-11"/>
      <point x="303" y="-9"/>
      <point x="315" y="-7" type="curve"/>
      <point x="308" y="-51"/>
      <point x="267" y="-95"/>
      <point x="217" y="-140" type="curve"/>
      <point x="228" y="-152" type="line"/>
    </contour>
    <contour>
      <point x="146" y="-104"/>
      <point x="193" y="-42"/>
      <point x="193" y="1" type="curve" smooth="yes"/>
      <point x="193" y="33"/>
      <point x="174" y="53"/>
      <point x="139" y="53" type="curve" smooth="yes"/>
      <point x="108" y="53"/>
      <point x="89" y="38"/>
      <point x="89" y="19" type="curve" smooth="yes"/>
      <point x="89" y="0"/>
      <point x="107" y="-11"/>
      <point x="132" y="-11" type="curve" smooth="yes"/>
      <point x="147" y="-11"/>
      <point x="160" y="-9"/>
      <point x="172" y="-7" type="curve"/>
      <point x="165" y="-51"/>
      <point x="124" y="-95"/>
      <point x="74" y="-140" type="curve"/>
      <point x="85" y="-152" type="line"/>
    </contour>
  </outline>
</glyph>
<glyph name="bullet" format="1">
  <advance width="320"/>
  <unicode hex="2022"/>
  <outline>
    <contour>
      <point x="210" y="200"/>
      <point x="236" y="221"/>
      <point x="236" y="248" type="curve"/>
      <point x="236" y="278"/>
      <point x="210" y="300"/>
      <point x="160" y="300" type="curve"/>
      <point x="112" y="300"/>
      <point x="84" y="278"/>
      <point x="84" y="248" type="curve"/>
      <point x="84" y="221"/>
      <point x="112" y="200"/>
      <point x="160" y="200" type="curve"/>
    </contour>
  </outline>
</glyph>
<glyph name="ellipsis" format="1">
  <advance width="738"/>
  <unicode hex="2026"/>
  <outline>
    <contour>
      <point x="647" y="-10"/>
      <point x="664" y="4"/>
      <point x="664" y="22" type="curve"/>
      <point x="664" y="41"/>
      <point x="647" y="54"/>
      <point x="615" y="54" type="curve"/>
      <point x="584" y="54"/>
      <point x="566" y="41"/>
      <point x="566" y="22" type="curve"/>
      <point x="566" y="4"/>
      <point x="584" y="-10"/>
      <point x="615" y="-10" type="curve"/>
    </contour>
    <contour>
      <point x="155" y="-10"/>
      <point x="172" y="4"/>
      <point x="172" y="22" type="curve"/>
      <point x="172" y="41"/>
      <point x="155" y="54"/>
      <point x="123" y="54" type="curve"/>
      <point x="92" y="54"/>
      <point x="74" y="41"/>
      <point x="74" y="22" type="curve"/>
      <point x="74" y="4"/>
      <point x="92" y="-10"/>
      <point x="123" y="-10" type="curve"/>
    </contour>
    <contour>
      <point x="401" y="-10"/>
      <point x="418" y="4"/>
      <point x="418" y="22" type="curve"/>
      <point x="418" y="41"/>
      <point x="401" y="54"/>
      <point x="369" y="54" type="curve"/>
      <point x="338" y="54"/>
      <point x="320" y="41"/>
      <point x="320" y="22" type="curve"/>
      <point x="320" y="4"/>
      <point x="338" y="-10"/>
      <point x="369" y="-10" type="curve"/>
    </contour>
  </outline>
</glyph>
<glyph name="uni2120" format="1">
  <advance width="942"/>
  <unicode hex="2120"/>
  <outline>
    <contour>
      <point x="301" y="295"/>
      <point x="345" y="315"/>
      <point x="345" y="354" type="curve" smooth="yes"/>
      <point x="345" y="395"/>
      <point x="304" y="411"/>
      <point x="203" y="420" type="curve" smooth="yes"/>
      <point x="112" y="428"/>
      <point x="91" y="444"/>
      <point x="91" y="465" type="curve" smooth="yes"/>
      <point x="91" y="488"/>
      <point x="119" y="501"/>
      <point x="175" y="501" type="curve" smooth="yes"/>
      <point x="242" y="501"/>
      <point x="290" y="474"/>
      <point x="326" y="436" type="curve"/>
      <point x="330" y="437" type="line"/>
      <point x="330" y="520" type="line"/>
      <point x="307" y="520" type="line"/>
      <point x="307" y="460" type="line"/>
      <point x="323" y="460" type="line"/>
      <point x="295" y="494"/>
      <point x="239" y="524"/>
      <point x="175" y="524" type="curve" smooth="yes"/>
      <point x="106" y="524"/>
      <point x="66" y="503"/>
      <point x="66" y="464" type="curve" smooth="yes"/>
      <point x="66" y="426"/>
      <point x="99" y="404"/>
      <point x="202" y="396" type="curve" smooth="yes"/>
      <point x="297" y="389"/>
      <point x="320" y="374"/>
      <point x="320" y="353" type="curve" smooth="yes"/>
      <point x="320" y="332"/>
      <point x="292" y="318"/>
      <point x="241" y="318" type="curve" smooth="yes"/>
      <point x="173" y="318"/>
      <point x="109" y="344"/>
      <point x="71" y="384" type="curve"/>
      <point x="65" y="383" type="line"/>
      <point x="65" y="300" type="line"/>
      <point x="88" y="300" type="line"/>
      <point x="88" y="359" type="line"/>
      <point x="71" y="359" type="line"/>
      <point x="103" y="324"/>
      <point x="174" y="295"/>
      <point x="241" y="295" type="curve" smooth="yes"/>
    </contour>
    <contour>
      <point x="638" y="296" type="line"/>
      <point x="642" y="328" type="line"/>
      <point x="499" y="520" type="line"/>
      <point x="469" y="520" type="line"/>
      <point x="636" y="296" type="line"/>
    </contour>
    <contour>
      <point x="545" y="300" type="line"/>
      <point x="545" y="323" type="line"/>
      <point x="402" y="323" type="line"/>
      <point x="402" y="300" type="line"/>
    </contour>
    <contour>
      <point x="494" y="305" type="line"/>
      <point x="494" y="520" type="line"/>
      <point x="469" y="520" type="line"/>
      <point x="469" y="305" type="line"/>
    </contour>
    <contour>
      <point x="492" y="497" type="line"/>
      <point x="492" y="520" type="line"/>
      <point x="402" y="520" type="line"/>
      <point x="402" y="497" type="line"/>
    </contour>
    <contour>
      <point x="872" y="300" type="line"/>
      <point x="872" y="323" type="line"/>
      <point x="730" y="323" type="line"/>
      <point x="730" y="300" type="line"/>
    </contour>
    <contour>
      <point x="638" y="296" type="line"/>
      <point x="806" y="520" type="line"/>
      <point x="777" y="520" type="line"/>
      <point x="634" y="327" type="line"/>
      <point x="636" y="296" type="line"/>
    </contour>
    <contour>
      <point x="805" y="305" type="line"/>
      <point x="805" y="520" type="line"/>
      <point x="780" y="520" type="line"/>
      <point x="780" y="305" type="line"/>
    </contour>
    <contour>
      <point x="872" y="497" type="line"/>
      <point x="872" y="520" type="line"/>
      <point x="783" y="520" type="line"/>
      <point x="783" y="497" type="line"/>
    </contour>
  </outline>
</glyph>
<glyph name="a.alt" format="1">
  <advance width="811"/>
  <outline>
    <contour>
      <point x="773" y="-5"/>
      <point x="796" y="54"/>
      <point x="796" y="103" type="curve" smooth="yes"/>
      <point x="796" y="117" type="line"/>
      <point x="771" y="117" type="line"/>
      <point x="771" y="103" type="line" smooth="yes"/>
      <point x="771" y="54"/>
      <point x="750" y="18"/>
      <point x="708" y="18" type="curve" smooth="yes"/>
      <point x="662" y="18"/>
      <point x="642" y="54"/>
      <point x="642" y="113" type="curve"/>
      <point x="642" y="197" type="line" smooth="yes"/>
      <point x="642" y="297"/>
      <point x="567" y="367"/>
      <point x="409" y="367" type="curve" smooth="yes"/>
      <point x="310" y="367"/>
      <point x="208" y="346"/>
      <point x="99" y="310" type="curve"/>
      <point x="107" y="287" type="line"/>
      <point x="209" y="319"/>
      <point x="306" y="344"/>
      <point x="409" y="344" type="curve" smooth="yes"/>
      <point x="554" y="344"/>
      <point x="617" y="281"/>
      <point x="617" y="197" type="curve" smooth="yes"/>
      <point x="617" y="113" type="line"/>
      <point x="617" y="44"/>
      <point x="643" y="-5"/>
      <point x="706" y="-5" type="curve" smooth="yes"/>
    </contour>
    <contour>
      <point x="392" y="-10"/>
      <point x="519" y="20"/>
      <point x="628" y="76" type="curve"/>
      <point x="628" y="98" type="line"/>
      <point x="514" y="44"/>
      <point x="390" y="13"/>
      <point x="282" y="13" type="curve" smooth="yes"/>
      <point x="189" y="13"/>
      <point x="110" y="33"/>
      <point x="110" y="96" type="curve"/>
      <point x="110" y="162"/>
      <point x="202" y="183"/>
      <point x="326" y="183" type="curve" smooth="yes"/>
      <point x="429" y="183"/>
      <point x="541" y="168"/>
      <point x="628" y="153" type="curve"/>
      <point x="628" y="176" type="line"/>
      <point x="541" y="191"/>
      <point x="431" y="206"/>
      <point x="310" y="206" type="curve" smooth="yes"/>
      <point x="188" y="206"/>
      <point x="85" y="178"/>
      <point x="85" y="96" type="curve"/>
      <point x="85" y="16"/>
      <point x="161" y="-10"/>
      <point x="282" y="-10" type="curve" smooth="yes"/>
    </contour>
    <contour>
      <point x="764" y="18" type="move" name="ogonek"/>
    </contour>
    <contour>
      <point x="287" y="-10" type="move" name="bottom"/>
    </contour>
    <contour>
      <point x="384" y="367" type="move" name="top"/>
    </contour>
  </outline>
</glyph>
<glyph name="four.dnom" format="1">
  <advance width="407"/>
  <outline>
    <contour>
      <point x="304" y="278" type="line"/>
      <point x="273" y="278" type="line"/>
      <point x="30" y="88" type="line"/>
      <point x="56" y="83" type="line"/>
    </contour>
    <contour>
      <point x="397" y="67" type="line"/>
      <point x="397" y="88" type="line"/>
      <point x="30" y="88" type="line"/>
      <point x="30" y="67" type="line"/>
    </contour>
    <contour>
      <point x="281" y="-10" type="line"/>
      <point x="304" y="-10" type="line"/>
      <point x="304" y="278" type="line"/>
      <point x="281" y="278" type="line"/>
    </contour>
  </outline>
</glyph>
<glyph name="k.alt" format="1">
  <advance width="841"/>
  <outline>
    <contour>
      <point x="684" y="348" type="line"/>
      <point x="640" y="348" type="line"/>
      <point x="227" y="104" type="line"/>
      <point x="227" y="78" type="line"/>
    </contour>
    <contour>
      <point x="419" y="0" type="line"/>
      <point x="419" y="23" type="line"/>
      <point x="30" y="23" type="line"/>
      <point x="30" y="0" type="line"/>
    </contour>
    <contour>
      <point x="237" y="0" type="line"/>
      <point x="237" y="520" type="line"/>
      <point x="212" y="520" type="line"/>
      <point x="212" y="0" type="line"/>
    </contour>
    <contour>
      <point x="786" y="0" type="line"/>
      <point x="786" y="23" type="line"/>
      <point x="500" y="23" type="line"/>
      <point x="500" y="0" type="line"/>
    </contour>
    <contour>
      <point x="694" y="6" type="line"/>
      <point x="438" y="201" type="line"/>
      <point x="412" y="191" type="line"/>
      <point x="659" y="6" type="line"/>
    </contour>
    <contour>
      <point x="237" y="497" type="line"/>
      <point x="237" y="520" type="line"/>
      <point x="30" y="520" type="line"/>
      <point x="30" y="497" type="line"/>
    </contour>
    <contour>
      <point x="766" y="334" type="line"/>
      <point x="766" y="357" type="line"/>
      <point x="488" y="357" type="line"/>
      <point x="488" y="334" type="line"/>
    </contour>
    <contour>
      <point x="463" y="367" type="move" name="top"/>
    </contour>
    <contour>
      <point x="463" y="0" type="move" name="bottom"/>
    </contour>
  </outline>
</glyph>
<glyph name="t.alt" format="1">
  <advance width="481"/>
  <outline>
    <contour>
      <point x="383" y="357" type="line"/>
      <point x="45" y="357" type="line"/>
      <point x="45" y="334" type="line"/>
      <point x="383" y="334" type="line"/>
    </contour>
    <contour>
      <point x="410" y="53" type="line"/>
      <point x="373" y="33"/>
      <point x="315" y="13"/>
      <point x="260" y="13" type="curve" smooth="yes"/>
      <point x="198" y="13"/>
      <point x="156" y="41"/>
      <point x="156" y="123" type="curve"/>
      <point x="156" y="205"/>
      <point x="194" y="321"/>
      <point x="199" y="340" type="curve"/>
      <point x="200" y="347" type="line"/>
      <point x="200" y="456" type="line"/>
      <point x="175" y="456" type="line"/>
      <point x="175" y="348" type="line"/>
      <point x="176" y="342" type="line"/>
      <point x="170" y="321"/>
      <point x="131" y="206"/>
      <point x="131" y="123" type="curve"/>
      <point x="131" y="27"/>
      <point x="181" y="-10"/>
      <point x="261" y="-10" type="curve" smooth="yes"/>
      <point x="318" y="-10"/>
      <point x="378" y="11"/>
      <point x="418" y="31" type="curve"/>
    </contour>
    <contour>
      <point x="266" y="-10" type="move" name="bottom"/>
    </contour>
    <contour>
      <point x="226" y="456" type="move" name="top"/>
    </contour>
    <contour>
      <point x="319" y="419" type="move" name="topright"/>
    </contour>
    <contour>
      <point x="226" y="179" type="move" name="center"/>
    </contour>
  </outline>
</glyph>
<glyph name="x.alt" format="1">
  <advance width="794"/>
  <outline>
    <contour>
      <point x="764" y="334" type="line"/>
      <point x="764" y="357" type="line"/>
      <point x="456" y="357" type="line"/>
      <point x="456" y="334" type="line"/>
    </contour>
    <contour>
      <point x="149" y="9" type="line"/>
      <point x="407" y="178" type="line"/>
      <point x="409" y="175" type="line"/>
      <point x="677" y="348" type="line"/>
      <point x="640" y="348" type="line"/>
      <point x="394" y="190" type="line"/>
      <point x="392" y="193" type="line"/>
      <point x="112" y="9" type="line"/>
    </contour>
    <contour>
      <point x="333" y="0" type="line"/>
      <point x="333" y="23" type="line"/>
      <point x="25" y="23" type="line"/>
      <point x="25" y="0" type="line"/>
    </contour>
    <contour>
      <point x="64" y="235" type="line"/>
      <point x="64" y="292"/>
      <point x="105" y="344"/>
      <point x="176" y="344" type="curve" smooth="yes"/>
      <point x="253" y="344"/>
      <point x="308" y="292"/>
      <point x="387" y="185" type="curve"/>
      <point x="391" y="180" type="line"/>
      <point x="474" y="67"/>
      <point x="532" y="-10"/>
      <point x="624" y="-10" type="curve" smooth="yes"/>
      <point x="718" y="-10"/>
      <point x="759" y="69"/>
      <point x="759" y="122" type="curve"/>
      <point x="734" y="122" type="line"/>
      <point x="734" y="65"/>
      <point x="693" y="13"/>
      <point x="625" y="13" type="curve" smooth="yes"/>
      <point x="554" y="13"/>
      <point x="502" y="69"/>
      <point x="411" y="191" type="curve"/>
      <point x="406" y="198" type="line"/>
      <point x="327" y="305"/>
      <point x="272" y="367"/>
      <point x="178" y="367" type="curve" smooth="yes"/>
      <point x="81" y="367"/>
      <point x="39" y="288"/>
      <point x="39" y="235" type="curve"/>
    </contour>
    <contour>
      <point x="392" y="357" type="move" name="top"/>
    </contour>
    <contour>
      <point x="392" y="0" type="move" name="bottom"/>
    </contour>
  </outline>
</glyph>
